<?xml version="1.0" encoding="UTF-8" standalone="no"?>
<svg xmlns:xlink="http://www.w3.org/1999/xlink" height="49.3px" width="49.6px" xmlns="http://www.w3.org/2000/svg">
  <g transform="matrix(1.0, 0.0, 0.0, 1.0, -0.35, -9.75)">
    <g transform="matrix(1.0, 0.0, 0.0, 1.0, 0.0, 0.0)">
      <use fill="#8970a2" height="49.3" transform="matrix(0.0552, 0.0, 0.0, 0.0552, 0.0, 57.0)" width="49.6" xlink:href="#font_5thGrader_20"/>
    </g>
  </g>
  <defs>
    <g id="font_5thGrader_20">
      <path d="M432.0 -50.0 L432.0 -50.0 Q432.0 -85.0 405.5 -98.5 L373.5 -94.0 Q355.0 -75.0 343.0 -50.0 L311.0 -54.5 Q292.5 -87.0 255.5 -98.5 218.0 -109.5 182.0 -121.0 202.5 -157.5 243.0 -203.5 283.5 -249.0 297.0 -272.5 319.5 -316.5 319.5 -379.0 319.5 -447.5 284.5 -506.0 243.5 -572.5 178.0 -572.5 130.0 -572.5 70.5 -515.5 11.0 -459.0 11.0 -411.5 11.0 -390.0 24.5 -374.5 38.0 -358.5 58.0 -358.5 87.0 -358.5 87.0 -391.0 87.0 -403.5 79.5 -426.0 101.0 -466.0 113.5 -479.0 136.0 -504.0 169.0 -504.0 213.0 -504.0 239.5 -465.5 266.0 -427.0 266.0 -383.0 266.0 -309.0 198.5 -231.5 174.0 -201.5 73.5 -113.5 6.0 -54.5 6.0 -25.5 6.0 -7.0 32.5 -7.0 32.5 -7.0 58.0 -10.0 107.5 -59.5 160.5 -59.5 200.5 -59.5 248.5 -20.0 297.0 19.5 324.5 19.5 351.0 19.5 391.5 -3.0 432.0 -25.5 432.0 -50.0" fill-rule="evenodd" stroke="none"/>
    </g>
  </defs>
</svg>
