<?xml version="1.0" encoding="UTF-8" standalone="no"?>
<svg xmlns:xlink="http://www.w3.org/1999/xlink" height="159.9px" width="536.1px" xmlns="http://www.w3.org/2000/svg">
  <g transform="matrix(1.0, 0.0, 0.0, 1.0, 598.6, -8.45)">
    <g transform="matrix(1.0, 0.0, 0.0, 1.0, -626.4, 0.0)">
      <use fill="#6c4182" height="159.9" transform="matrix(0.0488, 0.0, 0.0, 0.0488, 83.0, 44.0)" width="536.1" xlink:href="#font_Duepuntozero_E0"/>
      <use fill="#6c4182" height="159.9" transform="matrix(0.0488, 0.0, 0.0, 0.0488, 110.75, 44.0)" width="536.1" xlink:href="#font_Duepuntozero_s0"/>
      <use fill="#6c4182" height="159.9" transform="matrix(0.0488, 0.0, 0.0, 0.0488, 144.95, 44.0)" width="536.1" xlink:href="#font_Duepuntozero_i0"/>
      <use fill="#6c4182" height="159.9" transform="matrix(0.0488, 0.0, 0.0, 0.0488, 152.05, 44.0)" width="536.1" xlink:href="#font_Duepuntozero_m0"/>
      <use fill="#6c4182" height="159.9" transform="matrix(0.0488, 0.0, 0.0, 0.0488, 185.2, 44.0)" width="536.1" xlink:href="#font_Duepuntozero_p0"/>
      <use fill="#6c4182" height="159.9" transform="matrix(0.0488, 0.0, 0.0, 0.0488, 206.85, 44.0)" width="536.1" xlink:href="#font_Duepuntozero_o0"/>
      <use fill="#6c4182" height="159.9" transform="matrix(0.0488, 0.0, 0.0, 0.0488, 228.35, 44.0)" width="536.1" xlink:href="#font_Duepuntozero_r0"/>
      <use fill="#6c4182" height="159.9" transform="matrix(0.0488, 0.0, 0.0, 0.0488, 245.05, 44.0)" width="536.1" xlink:href="#font_Duepuntozero_t0"/>
      <use fill="#6c4182" height="159.9" transform="matrix(0.0488, 0.0, 0.0, 0.0488, 264.65, 44.0)" width="536.1" xlink:href="#font_Duepuntozero_a0"/>
      <use fill="#6c4182" height="159.9" transform="matrix(0.0488, 0.0, 0.0, 0.0488, 286.25, 44.0)" width="536.1" xlink:href="#font_Duepuntozero_n0"/>
      <use fill="#6c4182" height="159.9" transform="matrix(0.0488, 0.0, 0.0, 0.0488, 308.05, 44.0)" width="536.1" xlink:href="#font_Duepuntozero_t0"/>
      <use fill="#6c4182" height="159.9" transform="matrix(0.0488, 0.0, 0.0, 0.0488, 327.65, 44.0)" width="536.1" xlink:href="#font_Duepuntozero_e0"/>
      <use fill="#6c4182" height="159.9" transform="matrix(0.0488, 0.0, 0.0, 0.0488, 362.4, 44.0)" width="536.1" xlink:href="#font_Duepuntozero_c0"/>
      <use fill="#6c4182" height="159.9" transform="matrix(0.0488, 0.0, 0.0, 0.0488, 383.15, 44.0)" width="536.1" xlink:href="#font_Duepuntozero_o0"/>
      <use fill="#6c4182" height="159.9" transform="matrix(0.0488, 0.0, 0.0, 0.0488, 404.65, 44.0)" width="536.1" xlink:href="#font_Duepuntozero_n0"/>
      <use fill="#6c4182" height="159.9" transform="matrix(0.0488, 0.0, 0.0, 0.0488, 426.45, 44.0)" width="536.1" xlink:href="#font_Duepuntozero_o0"/>
      <use fill="#6c4182" height="159.9" transform="matrix(0.0488, 0.0, 0.0, 0.0488, 447.95, 44.0)" width="536.1" xlink:href="#font_Duepuntozero_c0"/>
      <use fill="#6c4182" height="159.9" transform="matrix(0.0488, 0.0, 0.0, 0.0488, 468.7, 44.0)" width="536.1" xlink:href="#font_Duepuntozero_e0"/>
      <use fill="#6c4182" height="159.9" transform="matrix(0.0488, 0.0, 0.0, 0.0488, 490.2, 44.0)" width="536.1" xlink:href="#font_Duepuntozero_r0"/>
    </g>
    <g transform="matrix(1.0, 0.0, 0.0, 1.0, -626.4, 0.0)">
      <use fill="#6c4182" height="159.9" transform="matrix(0.0488, 0.0, 0.0, 0.0488, 26.0, 101.0)" width="536.1" xlink:href="#font_Duepuntozero_n0"/>
      <use fill="#6c4182" height="159.9" transform="matrix(0.0488, 0.0, 0.0, 0.0488, 47.8, 101.0)" width="536.1" xlink:href="#font_Duepuntozero_u0"/>
      <use fill="#6c4182" height="159.9" transform="matrix(0.0488, 0.0, 0.0, 0.0488, 69.6, 101.0)" width="536.1" xlink:href="#font_Duepuntozero_e0"/>
      <use fill="#6c4182" height="159.9" transform="matrix(0.0488, 0.0, 0.0, 0.0488, 91.1, 101.0)" width="536.1" xlink:href="#font_Duepuntozero_s0"/>
      <use fill="#6c4182" height="159.9" transform="matrix(0.0488, 0.0, 0.0, 0.0488, 112.05, 101.0)" width="536.1" xlink:href="#font_Duepuntozero_t0"/>
      <use fill="#6c4182" height="159.9" transform="matrix(0.0488, 0.0, 0.0, 0.0488, 131.65, 101.0)" width="536.1" xlink:href="#font_Duepuntozero_r0"/>
      <use fill="#6c4182" height="159.9" transform="matrix(0.0488, 0.0, 0.0, 0.0488, 148.35, 101.0)" width="536.1" xlink:href="#font_Duepuntozero_o0"/>
      <use fill="#6c4182" height="159.9" transform="matrix(0.0488, 0.0, 0.0, 0.0488, 169.85, 101.0)" width="536.1" xlink:href="#font_Duepuntozero_s0"/>
      <use fill="#6c4182" height="159.9" transform="matrix(0.0488, 0.0, 0.0, 0.0488, 204.05, 101.0)" width="536.1" xlink:href="#font_Duepuntozero_d0"/>
      <use fill="#6c4182" height="159.9" transform="matrix(0.0488, 0.0, 0.0, 0.0488, 225.75, 101.0)" width="536.1" xlink:href="#font_Duepuntozero_e0"/>
      <use fill="#6c4182" height="159.9" transform="matrix(0.0488, 0.0, 0.0, 0.0488, 247.25, 101.0)" width="536.1" xlink:href="#font_Duepuntozero_r0"/>
      <use fill="#6c4182" height="159.9" transform="matrix(0.0488, 0.0, 0.0, 0.0488, 263.95, 101.0)" width="536.1" xlink:href="#font_Duepuntozero_e0"/>
      <use fill="#6c4182" height="159.9" transform="matrix(0.0488, 0.0, 0.0, 0.0488, 285.45, 101.0)" width="536.1" xlink:href="#font_Duepuntozero_c0"/>
      <use fill="#6c4182" height="159.9" transform="matrix(0.0488, 0.0, 0.0, 0.0488, 306.2, 101.0)" width="536.1" xlink:href="#font_Duepuntozero_h0"/>
      <use fill="#6c4182" height="159.9" transform="matrix(0.0488, 0.0, 0.0, 0.0488, 328.05, 101.0)" width="536.1" xlink:href="#font_Duepuntozero_o0"/>
      <use fill="#6c4182" height="159.9" transform="matrix(0.0488, 0.0, 0.0, 0.0488, 349.55, 101.0)" width="536.1" xlink:href="#font_Duepuntozero_s0"/>
      <use fill="#6c4182" height="159.9" transform="matrix(0.0488, 0.0, 0.0, 0.0488, 383.75, 101.0)" width="536.1" xlink:href="#font_Duepuntozero_y0"/>
      <use fill="#6c4182" height="159.9" transform="matrix(0.0488, 0.0, 0.0, 0.0488, 418.8, 101.0)" width="536.1" xlink:href="#font_Duepuntozero_d0"/>
      <use fill="#6c4182" height="159.9" transform="matrix(0.0488, 0.0, 0.0, 0.0488, 440.5, 101.0)" width="536.1" xlink:href="#font_Duepuntozero_e0"/>
      <use fill="#6c4182" height="159.9" transform="matrix(0.0488, 0.0, 0.0, 0.0488, 462.0, 101.0)" width="536.1" xlink:href="#font_Duepuntozero_b0"/>
      <use fill="#6c4182" height="159.9" transform="matrix(0.0488, 0.0, 0.0, 0.0488, 483.7, 101.0)" width="536.1" xlink:href="#font_Duepuntozero_e0"/>
      <use fill="#6c4182" height="159.9" transform="matrix(0.0488, 0.0, 0.0, 0.0488, 505.2, 101.0)" width="536.1" xlink:href="#font_Duepuntozero_r0"/>
      <use fill="#6c4182" height="159.9" transform="matrix(0.0488, 0.0, 0.0, 0.0488, 521.9, 101.0)" width="536.1" xlink:href="#font_Duepuntozero_e0"/>
      <use fill="#6c4182" height="159.9" transform="matrix(0.0488, 0.0, 0.0, 0.0488, 543.4, 101.0)" width="536.1" xlink:href="#font_Duepuntozero_s0"/>
    </g>
    <g transform="matrix(1.0, 0.0, 0.0, 1.0, -626.4, 0.0)">
      <use fill="#6c4182" height="159.9" transform="matrix(0.0488, 0.0, 0.0, 0.0488, 74.0, 159.0)" width="536.1" xlink:href="#font_Duepuntozero_p0"/>
      <use fill="#6c4182" height="159.9" transform="matrix(0.0488, 0.0, 0.0, 0.0488, 95.65, 159.0)" width="536.1" xlink:href="#font_Duepuntozero_a0"/>
      <use fill="#6c4182" height="159.9" transform="matrix(0.0488, 0.0, 0.0, 0.0488, 117.25, 159.0)" width="536.1" xlink:href="#font_Duepuntozero_r0"/>
      <use fill="#6c4182" height="159.9" transform="matrix(0.0488, 0.0, 0.0, 0.0488, 133.95, 159.0)" width="536.1" xlink:href="#font_Duepuntozero_a0"/>
      <use fill="#6c4182" height="159.9" transform="matrix(0.0488, 0.0, 0.0, 0.0488, 168.8, 159.0)" width="536.1" xlink:href="#font_Duepuntozero_v0"/>
      <use fill="#6c4182" height="159.9" transform="matrix(0.0488, 0.0, 0.0, 0.0488, 192.6, 159.0)" width="536.1" xlink:href="#font_Duepuntozero_i0"/>
      <use fill="#6c4182" height="159.9" transform="matrix(0.0488, 0.0, 0.0, 0.0488, 199.7, 159.0)" width="536.1" xlink:href="#font_Duepuntozero_v0"/>
      <use fill="#6c4182" height="159.9" transform="matrix(0.0488, 0.0, 0.0, 0.0488, 223.5, 159.0)" width="536.1" xlink:href="#font_Duepuntozero_i0"/>
      <use fill="#6c4182" height="159.9" transform="matrix(0.0488, 0.0, 0.0, 0.0488, 230.6, 159.0)" width="536.1" xlink:href="#font_Duepuntozero_r0"/>
      <use fill="#6c4182" height="159.9" transform="matrix(0.0488, 0.0, 0.0, 0.0488, 260.55, 159.0)" width="536.1" xlink:href="#font_Duepuntozero_e0"/>
      <use fill="#6c4182" height="159.9" transform="matrix(0.0488, 0.0, 0.0, 0.0488, 282.05, 159.0)" width="536.1" xlink:href="#font_Duepuntozero_n0"/>
      <use fill="#6c4182" height="159.9" transform="matrix(0.0488, 0.0, 0.0, 0.0488, 317.1, 159.0)" width="536.1" xlink:href="#font_Duepuntozero_c0"/>
      <use fill="#6c4182" height="159.9" transform="matrix(0.0488, 0.0, 0.0, 0.0488, 337.85, 159.0)" width="536.1" xlink:href="#font_Duepuntozero_o0"/>
      <use fill="#6c4182" height="159.9" transform="matrix(0.0488, 0.0, 0.0, 0.0488, 359.35, 159.0)" width="536.1" xlink:href="#font_Duepuntozero_m0"/>
      <use fill="#6c4182" height="159.9" transform="matrix(0.0488, 0.0, 0.0, 0.0488, 392.5, 159.0)" width="536.1" xlink:href="#font_Duepuntozero_u0"/>
      <use fill="#6c4182" height="159.9" transform="matrix(0.0488, 0.0, 0.0, 0.0488, 414.3, 159.0)" width="536.1" xlink:href="#font_Duepuntozero_n0"/>
      <use fill="#6c4182" height="159.9" transform="matrix(0.0488, 0.0, 0.0, 0.0488, 436.1, 159.0)" width="536.1" xlink:href="#font_Duepuntozero_i0"/>
      <use fill="#6c4182" height="159.9" transform="matrix(0.0488, 0.0, 0.0, 0.0488, 443.2, 159.0)" width="536.1" xlink:href="#font_Duepuntozero_d0"/>
      <use fill="#6c4182" height="159.9" transform="matrix(0.0488, 0.0, 0.0, 0.0488, 464.9, 159.0)" width="536.1" xlink:href="#font_Duepuntozero_a0"/>
      <use fill="#6c4182" height="159.9" transform="matrix(0.0488, 0.0, 0.0, 0.0488, 486.5, 159.0)" width="536.1" xlink:href="#font_Duepuntozero_d0"/>
      <use fill="#6c4182" height="159.9" transform="matrix(0.0488, 0.0, 0.0, 0.0488, 508.2, 159.0)" width="536.1" xlink:href="#font_Duepuntozero_.0"/>
    </g>
  </g>
  <defs>
    <g id="font_Duepuntozero_E0">
      <path d="M36.0 -637.0 L36.0 -39.0 Q36.0 -22.5 48.0 -11.5 59.5 0.0 75.0 0.0 L78.0 0.0 485.5 0.0 Q502.0 0.0 513.5 -12.0 524.5 -23.5 524.5 -39.0 524.5 -55.5 513.5 -66.5 502.0 -78.0 485.5 -78.0 L114.0 -78.0 114.0 -288.5 332.0 -288.5 Q348.5 -288.5 360.0 -300.5 371.0 -312.0 371.0 -327.5 371.0 -344.0 360.0 -355.0 348.5 -366.5 332.0 -366.5 L114.0 -366.5 114.0 -598.0 485.5 -598.0 Q502.0 -598.0 513.5 -610.0 524.5 -621.5 524.5 -637.0 524.5 -653.5 513.5 -664.5 502.0 -676.0 485.5 -676.0 L75.0 -676.0 Q58.5 -676.0 47.5 -664.5 36.0 -653.5 36.0 -637.0" fill-rule="evenodd" stroke="none"/>
    </g>
    <g id="font_Duepuntozero_s0">
      <path d="M35.0 -368.5 L35.0 -368.5 Q35.0 -327.5 48.5 -300.5 61.5 -273.0 84.5 -256.5 107.5 -239.5 140.0 -232.0 172.0 -225.0 210.0 -225.0 255.0 -225.0 286.5 -209.0 317.5 -193.5 317.5 -149.5 317.5 -128.0 309.0 -113.5 300.0 -98.5 286.0 -90.0 271.5 -81.0 251.5 -77.5 231.5 -74.0 210.0 -74.0 177.5 -74.0 145.5 -91.5 114.0 -109.0 100.5 -139.5 95.5 -151.0 86.5 -157.5 77.0 -164.0 65.0 -164.0 47.5 -164.0 36.5 -152.5 26.0 -140.5 26.0 -125.0 26.0 -118.0 29.0 -111.0 47.5 -70.0 74.5 -47.0 101.5 -23.5 128.5 -12.5 155.0 -1.0 177.0 1.5 199.0 4.0 207.0 4.0 245.0 4.0 279.5 -5.0 313.5 -14.5 339.5 -34.0 366.0 -53.5 380.5 -82.0 395.5 -110.5 395.5 -149.5 395.5 -187.5 380.5 -216.0 366.0 -244.5 340.5 -264.0 315.5 -283.5 282.0 -293.5 248.0 -303.0 210.0 -303.0 164.0 -303.0 138.5 -317.5 113.0 -331.5 113.0 -368.5 113.0 -396.0 139.5 -415.0 166.5 -434.0 210.5 -434.0 243.0 -434.0 262.5 -423.0 282.0 -412.5 301.5 -389.0 314.5 -372.5 333.0 -372.5 348.5 -372.5 359.5 -384.0 370.0 -395.0 370.0 -410.5 370.0 -420.5 363.0 -435.0 345.5 -464.0 320.0 -479.5 294.5 -495.5 269.5 -503.0 241.0 -511.0 210.5 -512.0 172.5 -512.0 140.0 -501.5 108.0 -491.5 85.0 -472.5 61.5 -453.5 48.5 -427.0 35.0 -400.5 35.0 -368.5" fill-rule="evenodd" stroke="none"/>
    </g>
    <g id="font_Duepuntozero_i0">
      <path d="M33.5 -649.0 L33.5 -619.5 Q33.5 -603.0 45.5 -592.0 57.0 -580.5 72.5 -580.5 89.0 -580.5 100.0 -592.0 111.5 -603.0 111.5 -619.5 L111.5 -649.0 Q111.5 -665.5 99.5 -676.5 88.0 -688.0 72.5 -688.0 56.0 -688.0 45.0 -676.5 33.5 -665.5 33.5 -649.0 M33.5 -469.0 L33.5 -39.0 Q33.5 -22.5 45.5 -11.5 57.0 0.0 72.5 0.0 89.0 0.0 100.0 -11.5 111.5 -22.5 111.5 -39.0 L111.5 -469.0 Q111.5 -485.5 99.5 -496.5 88.0 -508.0 72.5 -508.0 56.0 -508.0 45.0 -496.5 33.5 -485.5 33.5 -469.0" fill-rule="evenodd" stroke="none"/>
    </g>
    <g id="font_Duepuntozero_m0">
      <path d="M33.0 -327.5 L33.0 -39.0 Q33.0 -22.5 44.5 -11.5 55.5 0.0 72.0 0.0 87.5 0.0 99.0 -11.5 111.0 -22.5 111.0 -39.0 L111.0 -327.5 Q111.0 -371.5 136.5 -403.0 162.0 -434.0 208.5 -434.0 252.5 -434.0 279.0 -403.0 305.5 -371.5 305.5 -327.5 L305.5 -39.0 Q305.5 -22.5 317.0 -11.5 328.0 0.0 344.5 0.0 360.0 0.0 371.5 -11.5 383.5 -22.5 383.5 -39.0 L383.5 -327.5 Q383.5 -371.5 409.0 -403.0 434.5 -434.0 481.0 -434.0 525.0 -434.0 551.5 -403.0 578.0 -371.5 578.0 -327.5 L578.0 -39.0 Q578.0 -22.5 589.5 -11.5 600.5 0.0 617.0 0.0 632.5 0.0 644.0 -11.5 656.0 -22.5 656.0 -39.0 L656.0 -327.5 Q656.0 -365.5 642.5 -399.5 629.5 -433.0 606.5 -458.0 583.5 -483.5 551.0 -497.5 518.5 -512.0 481.0 -512.0 437.5 -512.0 403.0 -493.5 368.0 -475.0 344.5 -445.5 321.0 -475.0 286.0 -493.5 251.5 -512.0 208.0 -512.0 169.5 -512.0 137.5 -497.5 106.0 -483.5 82.0 -458.0 58.5 -433.0 46.0 -399.5 33.0 -365.5 33.0 -327.5" fill-rule="evenodd" stroke="none"/>
    </g>
    <g id="font_Duepuntozero_p0">
      <path d="M111.0 -180.5 L111.0 -327.5 Q111.0 -349.0 119.0 -368.5 127.5 -388.0 142.0 -403.0 157.0 -417.5 176.5 -426.0 196.0 -434.0 218.5 -434.0 239.5 -434.0 259.5 -426.0 279.5 -417.5 294.0 -403.0 308.0 -388.0 317.0 -368.5 325.5 -349.0 325.5 -327.5 L325.5 -180.5 Q325.5 -159.0 317.5 -139.5 309.0 -120.0 294.5 -105.0 279.5 -90.5 260.0 -82.0 240.5 -74.0 218.5 -74.0 197.0 -74.0 177.0 -82.0 157.0 -90.5 142.5 -105.0 128.5 -120.0 119.5 -139.5 111.0 -159.0 111.0 -180.5 M33.0 -327.5 L33.0 -172.0 33.0 141.0 Q33.0 157.5 44.5 168.5 55.5 180.0 72.0 180.0 87.5 180.0 99.0 168.5 111.0 157.5 111.0 141.0 L111.0 -31.0 Q133.5 -14.5 161.0 -5.5 188.5 4.0 218.5 4.0 256.0 4.0 290.0 -10.5 323.5 -24.5 349.5 -49.5 375.0 -75.0 389.0 -108.5 403.5 -142.5 403.5 -180.5 L403.5 -327.5 Q403.5 -365.5 388.5 -399.5 374.0 -433.0 348.5 -458.0 323.5 -483.5 290.0 -497.5 256.0 -512.0 218.5 -512.0 179.5 -512.0 146.0 -497.5 113.0 -483.5 87.0 -458.5 61.5 -433.0 47.5 -399.5 33.0 -365.5 33.0 -327.5" fill-rule="evenodd" stroke="none"/>
    </g>
    <g id="font_Duepuntozero_o0">
      <path d="M107.5 -180.5 L107.5 -327.5 Q107.5 -349.0 115.5 -368.5 124.0 -388.0 138.5 -403.0 153.5 -417.5 173.0 -426.0 192.5 -434.0 215.0 -434.0 236.5 -434.0 256.5 -426.0 276.5 -417.5 291.0 -403.0 305.0 -388.0 314.0 -368.5 322.5 -349.0 322.5 -327.5 L322.5 -180.5 Q322.5 -159.0 314.5 -139.5 306.0 -120.0 291.5 -105.0 276.5 -90.5 257.0 -82.0 237.5 -74.0 215.0 -74.0 193.5 -74.0 173.5 -82.0 153.5 -90.5 139.0 -105.0 125.0 -120.0 116.0 -139.5 107.5 -159.0 107.5 -180.5 M29.5 -327.5 L29.5 -180.5 Q29.5 -142.5 44.5 -108.5 59.0 -75.0 84.5 -49.5 109.5 -24.5 143.5 -10.5 177.0 4.0 215.0 4.0 253.0 4.0 286.5 -10.5 320.5 -24.5 346.0 -49.5 372.0 -75.0 386.0 -108.5 400.5 -142.5 400.5 -180.5 L400.5 -327.5 Q400.5 -365.5 385.5 -399.5 371.0 -433.0 345.5 -458.0 320.5 -483.5 286.5 -497.5 253.0 -512.0 215.0 -512.0 176.0 -512.0 142.5 -497.5 109.5 -483.5 84.0 -458.0 58.0 -433.0 44.0 -399.5 29.5 -365.5 29.5 -327.5" fill-rule="evenodd" stroke="none"/>
    </g>
    <g id="font_Duepuntozero_r0">
      <path d="M33.5 -469.0 L33.5 -335.0 33.5 -39.0 Q33.5 -22.5 45.5 -11.5 57.0 0.0 72.5 0.0 89.0 0.0 100.0 -11.5 111.5 -22.5 111.5 -39.0 L111.5 -331.5 Q112.5 -353.0 120.5 -371.5 129.0 -390.0 144.0 -404.0 158.5 -417.5 177.5 -426.0 196.5 -434.0 219.0 -434.0 247.5 -434.0 273.5 -419.5 283.5 -412.5 297.0 -412.5 313.0 -412.5 324.5 -423.0 336.0 -434.0 336.0 -451.5 336.0 -473.0 318.5 -485.0 301.0 -496.5 280.0 -503.0 259.0 -509.0 241.0 -510.5 223.0 -512.0 223.0 -512.0 158.5 -512.0 110.5 -476.0 107.5 -490.5 96.5 -499.0 86.0 -508.0 72.5 -508.0 56.0 -508.0 45.0 -496.5 33.5 -485.5 33.5 -469.0" fill-rule="evenodd" stroke="none"/>
    </g>
    <g id="font_Duepuntozero_t0">
      <path d="M33.5 -638.0 L33.5 -180.5 Q33.5 -142.5 48.5 -108.5 63.5 -75.0 88.5 -50.0 113.5 -24.5 147.5 -10.5 181.0 4.0 219.0 4.0 220.0 4.0 239.0 3.0 258.0 2.0 285.0 -8.5 312.0 -18.5 341.0 -42.0 369.5 -66.0 390.0 -111.0 393.0 -118.0 393.0 -125.0 393.0 -140.5 382.0 -152.5 370.5 -164.0 354.0 -164.0 342.0 -164.0 332.5 -157.5 323.5 -151.0 318.5 -139.5 305.0 -109.0 278.5 -91.5 252.0 -74.0 219.0 -74.0 197.5 -74.0 177.5 -82.0 157.5 -90.5 143.0 -105.0 129.0 -120.0 120.0 -139.5 111.5 -159.0 111.5 -180.5 L111.5 -430.0 310.0 -430.0 Q326.5 -430.0 338.0 -442.0 349.0 -453.5 349.0 -469.0 349.0 -485.5 338.0 -496.5 326.5 -508.0 310.0 -508.0 L111.5 -508.0 111.5 -638.0 Q111.5 -654.5 99.5 -665.5 88.0 -677.0 72.5 -677.0 56.0 -677.0 45.0 -665.5 33.5 -654.5 33.5 -638.0" fill-rule="evenodd" stroke="none"/>
    </g>
    <g id="font_Duepuntozero_a0">
      <path d="M107.5 -180.5 L107.5 -327.5 Q107.5 -349.0 115.5 -368.5 124.0 -388.0 138.5 -403.0 153.5 -417.5 173.0 -426.0 192.5 -434.0 215.0 -434.0 236.5 -434.0 256.5 -426.0 276.5 -417.5 291.0 -403.0 305.0 -388.0 314.0 -368.5 322.5 -349.0 322.5 -327.5 L322.5 -175.0 Q321.5 -154.0 313.0 -135.5 304.0 -117.0 289.5 -103.0 275.5 -89.5 256.0 -81.5 236.5 -74.0 215.0 -74.0 193.5 -74.0 173.5 -82.0 153.5 -90.5 139.0 -105.0 125.0 -120.0 116.0 -139.5 107.5 -159.0 107.5 -180.5 M29.5 -327.5 L29.5 -180.5 Q29.5 -142.5 44.5 -108.5 59.0 -75.0 84.5 -49.5 109.5 -24.5 143.0 -10.5 177.0 4.0 215.0 4.0 276.5 4.0 323.5 -31.0 325.5 -17.5 336.5 -9.0 347.0 0.0 361.5 0.0 377.0 0.0 388.5 -11.5 400.5 -22.5 400.5 -39.0 L400.5 -327.5 Q400.5 -365.5 385.5 -399.5 371.0 -433.0 345.5 -458.0 320.5 -483.5 286.5 -497.5 253.0 -512.0 215.0 -512.0 176.0 -512.0 142.5 -497.5 109.5 -483.5 84.0 -458.0 58.0 -433.0 44.0 -399.5 29.5 -365.5 29.5 -327.5" fill-rule="evenodd" stroke="none"/>
    </g>
    <g id="font_Duepuntozero_n0">
      <path d="M33.0 -327.5 L33.0 -39.0 Q33.0 -22.5 44.5 -11.5 55.5 0.0 72.0 0.0 87.5 0.0 99.0 -11.5 111.0 -22.5 111.0 -39.0 L111.0 -327.5 Q111.0 -349.0 119.0 -368.5 127.5 -388.0 142.0 -403.0 157.0 -417.5 176.5 -426.0 196.0 -434.0 218.5 -434.0 239.5 -434.0 259.5 -426.0 279.5 -417.5 294.0 -403.0 308.0 -388.0 317.0 -368.5 325.5 -349.0 325.5 -327.5 L325.5 -39.0 Q325.5 -22.5 337.0 -11.5 348.0 0.0 364.5 0.0 380.0 0.0 391.5 -11.5 403.5 -22.5 403.5 -39.0 L403.5 -327.5 Q403.5 -365.5 388.5 -399.5 374.0 -433.0 348.5 -458.0 323.5 -483.5 290.0 -497.5 256.0 -512.0 218.5 -512.0 179.5 -512.0 146.0 -497.5 113.0 -483.5 87.0 -458.0 61.5 -433.0 47.5 -399.5 33.0 -365.5 33.0 -327.5" fill-rule="evenodd" stroke="none"/>
    </g>
    <g id="font_Duepuntozero_e0">
      <path d="M107.5 -293.0 L107.5 -327.5 Q107.5 -349.0 115.5 -368.5 124.0 -388.0 138.5 -403.0 153.5 -417.5 173.0 -426.0 192.5 -434.0 215.0 -434.0 236.5 -434.0 256.5 -426.0 276.5 -417.5 291.0 -403.0 305.0 -388.0 314.0 -368.5 322.5 -349.0 322.5 -327.5 L322.5 -293.0 107.5 -293.0 M29.5 -327.5 L29.5 -180.5 Q29.5 -142.5 44.5 -108.5 59.0 -75.0 84.5 -49.5 109.5 -24.5 143.0 -10.5 177.0 4.0 215.0 4.0 272.5 4.0 317.5 -26.5 362.5 -57.5 384.0 -106.5 L386.0 -110.5 Q389.0 -118.0 389.0 -125.0 389.0 -140.5 377.5 -152.0 366.5 -164.0 350.0 -164.0 338.0 -164.0 328.0 -157.5 318.5 -150.5 314.5 -139.5 L313.5 -136.5 Q300.0 -107.5 274.0 -91.0 247.5 -74.0 215.0 -74.0 193.5 -74.0 173.5 -82.0 153.5 -90.5 139.0 -105.0 125.0 -120.0 116.0 -139.5 107.5 -159.0 107.5 -180.5 L107.5 -215.0 361.5 -215.0 Q378.0 -215.0 389.0 -226.5 400.5 -237.5 400.5 -254.0 L400.5 -327.5 Q400.5 -365.5 385.5 -399.5 370.5 -433.0 345.5 -458.0 320.5 -483.5 286.5 -497.5 253.0 -512.0 215.0 -512.0 176.0 -512.0 143.0 -497.5 109.5 -483.5 84.0 -458.0 58.0 -433.0 44.0 -399.5 29.5 -365.5 29.5 -327.5" fill-rule="evenodd" stroke="none"/>
    </g>
    <g id="font_Duepuntozero_c0">
      <path d="M29.5 -327.5 L29.5 -180.5 Q29.5 -142.5 44.5 -108.5 59.5 -75.0 84.5 -49.5 109.5 -24.5 143.5 -10.5 177.0 4.0 215.0 4.0 216.0 4.0 235.0 3.0 254.0 2.0 281.0 -8.5 308.0 -18.5 337.0 -42.0 365.5 -66.0 386.0 -111.0 389.0 -118.0 389.0 -125.0 389.0 -140.5 378.0 -152.5 366.5 -164.0 350.0 -164.0 338.0 -164.0 328.5 -157.5 319.5 -151.0 314.5 -139.5 301.0 -109.0 274.5 -91.5 248.0 -74.0 215.0 -74.0 193.5 -74.0 173.5 -82.0 153.5 -90.5 139.0 -105.0 125.0 -120.0 116.0 -139.5 107.5 -159.0 107.5 -180.5 L107.5 -327.5 Q107.5 -349.0 115.5 -368.5 124.0 -388.0 138.5 -403.0 153.5 -417.5 173.0 -426.0 192.5 -434.0 215.0 -434.0 247.0 -434.0 273.5 -416.5 300.0 -399.0 314.5 -368.5 318.5 -357.0 328.0 -350.5 338.0 -344.0 350.0 -344.0 366.5 -344.0 378.0 -355.0 389.0 -366.5 389.0 -383.0 389.0 -389.0 386.0 -397.0 369.5 -438.0 344.5 -461.0 319.5 -484.5 294.0 -495.5 268.5 -507.0 247.5 -509.5 226.5 -512.0 219.0 -512.0 180.0 -512.0 146.0 -497.5 111.5 -483.5 85.5 -459.0 59.5 -434.0 44.5 -400.5 29.5 -366.5 29.5 -327.5" fill-rule="evenodd" stroke="none"/>
    </g>
    <g id="font_Duepuntozero_u0">
      <path d="M33.0 -469.0 L33.0 -180.5 Q33.0 -142.5 47.5 -108.5 61.5 -75.0 87.0 -50.0 113.0 -24.5 146.0 -10.5 179.5 4.0 218.5 4.0 256.0 4.0 290.0 -10.5 323.5 -24.5 348.5 -50.0 374.0 -75.0 388.5 -108.5 403.5 -142.5 403.5 -180.5 L403.5 -469.0 Q403.5 -485.5 391.5 -496.5 380.0 -508.0 364.5 -508.0 348.0 -508.0 337.0 -496.5 325.5 -485.5 325.5 -469.0 L325.5 -180.5 Q325.5 -159.0 317.0 -139.5 308.0 -120.0 294.0 -105.0 279.5 -90.5 259.5 -82.0 239.5 -74.0 218.5 -74.0 196.0 -74.0 176.5 -82.0 157.0 -90.5 142.0 -105.0 127.5 -120.0 119.0 -139.5 111.0 -159.0 111.0 -180.5 L111.0 -469.0 Q111.0 -485.5 99.0 -496.5 87.5 -508.0 72.0 -508.0 55.5 -508.0 44.5 -496.5 33.0 -485.5 33.0 -469.0" fill-rule="evenodd" stroke="none"/>
    </g>
    <g id="font_Duepuntozero_d0">
      <path d="M107.5 -180.5 L107.5 -327.5 Q107.5 -349.0 116.0 -368.5 125.0 -388.0 139.0 -403.0 153.5 -417.5 173.5 -426.0 193.5 -434.0 215.0 -434.0 237.5 -434.0 257.0 -426.0 276.5 -417.5 291.5 -403.0 306.0 -388.0 314.5 -368.5 322.5 -349.0 322.5 -327.5 L322.5 -180.5 Q322.5 -159.0 314.0 -139.5 305.0 -120.0 291.0 -105.0 276.5 -90.5 256.5 -82.0 236.5 -74.0 215.0 -74.0 192.5 -74.0 173.0 -82.0 153.5 -90.5 138.5 -105.0 124.0 -120.0 115.5 -139.5 107.5 -159.0 107.5 -180.5 M322.5 -649.0 L322.5 -477.0 Q299.0 -493.5 272.0 -502.5 244.5 -512.0 215.0 -512.0 177.0 -512.0 143.0 -497.5 109.5 -483.5 84.5 -458.0 59.0 -433.0 44.5 -399.5 29.5 -365.5 29.5 -327.5 L29.5 -180.5 Q29.5 -142.5 44.0 -108.5 58.0 -75.0 84.0 -49.5 109.5 -24.5 142.5 -10.5 176.0 4.0 215.0 4.0 253.0 4.0 286.5 -10.5 320.5 -24.5 345.5 -49.5 371.0 -75.0 385.5 -108.5 400.5 -142.5 400.5 -180.5 L400.5 -649.0 Q400.5 -665.5 388.5 -676.5 377.0 -688.0 361.5 -688.0 345.0 -688.0 334.0 -676.5 322.5 -665.5 322.5 -649.0" fill-rule="evenodd" stroke="none"/>
    </g>
    <g id="font_Duepuntozero_h0">
      <path d="M34.0 -649.0 L34.0 -335.0 34.0 -39.0 Q34.0 -22.5 45.5 -11.5 56.5 0.0 73.0 0.0 88.5 0.0 100.0 -11.5 112.0 -22.5 112.0 -39.0 L112.0 -331.5 Q113.0 -353.0 121.0 -371.5 129.5 -390.0 144.0 -404.0 159.0 -417.5 178.0 -426.0 197.0 -434.0 219.5 -434.0 240.5 -434.0 260.5 -426.0 280.5 -417.5 295.0 -403.0 309.0 -388.0 318.0 -368.5 326.5 -349.0 326.5 -327.5 L326.5 -39.0 Q326.5 -22.5 338.0 -11.5 349.0 0.0 365.5 0.0 381.0 0.0 392.5 -11.5 404.5 -22.5 404.5 -39.0 L404.5 -327.5 Q404.5 -365.5 389.5 -399.5 375.0 -433.0 350.0 -458.0 324.5 -483.5 291.0 -497.5 257.0 -512.0 219.5 -512.0 189.5 -512.0 162.0 -502.5 134.5 -493.5 112.0 -477.0 L112.0 -649.0 Q112.0 -665.5 100.0 -676.5 88.5 -688.0 73.0 -688.0 56.5 -688.0 45.5 -676.5 34.0 -665.5 34.0 -649.0" fill-rule="evenodd" stroke="none"/>
    </g>
    <g id="font_Duepuntozero_y0">
      <path d="M33.0 -469.0 L33.0 -180.5 Q33.0 -147.5 44.5 -117.5 55.5 -87.0 75.0 -63.5 94.5 -40.0 121.0 -23.0 147.5 -6.5 179.5 0.0 L179.5 141.0 Q179.5 157.5 191.5 168.5 203.0 180.0 218.5 180.0 235.0 180.0 246.0 168.5 257.5 157.5 257.5 141.0 L257.5 0.0 Q288.0 -6.5 315.5 -23.0 342.5 -40.0 362.0 -63.5 381.5 -87.0 392.5 -117.5 404.0 -147.5 404.0 -180.5 L404.0 -469.0 Q404.0 -485.5 392.0 -496.5 380.5 -508.0 365.0 -508.0 348.5 -508.0 337.5 -496.5 326.0 -485.5 326.0 -469.0 L326.0 -180.5 Q326.0 -159.0 317.5 -139.5 308.5 -120.0 294.5 -105.0 280.0 -90.5 260.0 -82.0 240.0 -74.0 218.5 -74.0 196.0 -74.0 176.5 -82.0 157.0 -90.5 142.0 -105.0 127.5 -120.0 119.0 -139.5 111.0 -159.0 111.0 -180.5 L111.0 -469.0 Q111.0 -485.5 99.0 -496.5 87.5 -508.0 72.0 -508.0 55.5 -508.0 44.5 -496.5 33.0 -485.5 33.0 -469.0" fill-rule="evenodd" stroke="none"/>
    </g>
    <g id="font_Duepuntozero_b0">
      <path d="M112.0 -180.5 L112.0 -331.5 Q113.0 -353.0 121.5 -371.5 130.5 -390.0 144.5 -404.0 159.0 -417.5 178.5 -426.0 198.0 -434.0 219.5 -434.0 241.5 -434.0 261.0 -426.0 280.5 -417.5 295.5 -403.0 310.0 -388.0 318.5 -368.5 326.5 -349.0 326.5 -327.5 L326.5 -180.5 Q326.5 -159.0 318.0 -139.5 309.0 -120.0 295.0 -105.0 280.5 -90.5 260.5 -82.0 240.5 -74.0 219.5 -74.0 197.0 -74.0 177.5 -82.0 158.0 -90.5 143.0 -105.0 128.5 -120.0 120.0 -139.5 112.0 -159.0 112.0 -180.5 M34.0 -649.0 L34.0 -180.5 Q34.0 -142.5 48.5 -108.5 62.5 -75.0 88.0 -49.5 114.0 -24.5 147.0 -10.5 180.5 4.0 219.5 4.0 257.0 4.0 291.0 -10.5 324.5 -24.5 349.5 -49.5 375.0 -75.0 389.5 -108.5 404.5 -142.5 404.5 -180.5 L404.5 -327.5 Q404.5 -365.5 390.0 -399.5 376.0 -433.0 350.5 -458.0 324.5 -483.5 291.0 -497.5 257.0 -512.0 219.5 -512.0 189.5 -512.0 162.0 -502.5 134.5 -493.5 112.0 -477.0 L112.0 -649.0 Q112.0 -665.5 100.0 -676.5 88.5 -688.0 73.0 -688.0 56.5 -688.0 45.5 -676.5 34.0 -665.5 34.0 -649.0" fill-rule="evenodd" stroke="none"/>
    </g>
    <g id="font_Duepuntozero_v0">
      <path d="M19.5 -454.5 L206.0 -19.5 Q215.0 4.0 241.5 4.0 266.0 4.0 277.5 -19.5 L464.0 -454.5 Q467.0 -462.0 467.0 -470.0 467.0 -484.5 456.5 -496.5 446.5 -509.0 429.0 -509.0 403.5 -509.0 393.0 -485.5 L241.5 -132.0 90.0 -485.5 Q85.0 -496.5 75.5 -503.0 65.5 -509.0 54.5 -509.0 37.0 -509.0 26.5 -496.5 16.5 -484.5 16.5 -470.0 16.5 -462.0 19.5 -454.5" fill-rule="evenodd" stroke="none"/>
    </g>
    <g id="font_Duepuntozero_.0">
      <path d="M26.5 -39.0 L26.5 -39.0 Q26.5 -22.5 38.5 -11.5 50.0 0.0 65.5 0.0 82.0 0.0 93.0 -11.5 104.5 -22.5 104.5 -39.0 104.5 -55.5 92.5 -66.5 81.0 -78.0 65.5 -78.0 49.0 -78.0 38.0 -66.5 26.5 -55.5 26.5 -39.0" fill-rule="evenodd" stroke="none"/>
    </g>
  </defs>
</svg>
