<?xml version="1.0" encoding="UTF-8" standalone="no"?>
<svg xmlns:xlink="http://www.w3.org/1999/xlink" height="40.5px" width="28.25px" xmlns="http://www.w3.org/2000/svg">
  <g transform="matrix(1.0, 0.0, 0.0, 1.0, -58.75, -10.65)">
    <g transform="matrix(1.0, 0.0, 0.0, 1.0, 56.95, 0.0)">
      <use fill="#000000" fill-opacity="0.9764706" height="40.5" transform="matrix(0.0439, 0.0, 0.0, 0.0439, 0.0, 50.0)" width="28.25" xlink:href="#font_Architects_Daughter_20"/>
    </g>
  </g>
  <defs>
    <g id="font_Architects_Daughter_20">
      <path d="M48.0 -62.0 L48.0 -62.0 Q36.0 -30.0 59.0 -15.0 82.0 0.0 125.0 4.0 168.0 8.0 223.0 3.0 278.0 -2.0 330.0 -9.5 382.0 -17.0 423.0 -25.5 464.0 -34.0 479.0 -37.0 482.0 -38.0 497.0 -39.0 512.0 -40.0 532.0 -43.0 552.0 -46.0 574.5 -51.5 597.0 -57.0 616.0 -66.5 635.0 -76.0 647.5 -90.0 660.0 -104.0 660.0 -123.0 660.0 -142.0 646.5 -149.0 633.0 -156.0 618.0 -156.0 562.0 -156.0 514.0 -145.5 466.0 -135.0 419.0 -124.0 372.0 -113.0 322.0 -105.5 272.0 -98.0 214.0 -103.0 243.0 -136.0 278.0 -182.0 313.0 -228.0 348.0 -281.5 383.0 -335.0 416.5 -393.0 450.0 -451.0 475.5 -509.0 501.0 -567.0 516.5 -621.5 532.0 -676.0 532.0 -722.0 527.0 -769.0 504.0 -797.0 481.0 -825.0 446.0 -837.0 411.0 -849.0 367.5 -847.5 324.0 -846.0 279.5 -833.5 235.0 -821.0 192.0 -799.5 149.0 -778.0 116.0 -751.0 83.0 -724.0 62.0 -694.0 41.0 -664.0 40.0 -633.0 87.0 -633.0 125.5 -657.0 164.0 -681.0 202.5 -710.0 241.0 -739.0 283.5 -763.0 326.0 -787.0 380.0 -787.0 423.0 -778.0 438.5 -748.5 454.0 -719.0 448.5 -675.5 443.0 -632.0 420.0 -577.0 397.0 -522.0 363.0 -463.5 329.0 -405.0 287.5 -345.5 246.0 -286.0 203.0 -232.5 160.0 -179.0 119.5 -134.5 79.0 -90.0 48.0 -62.0" fill-rule="evenodd" stroke="none"/>
    </g>
  </defs>
</svg>
