<?xml version="1.0" encoding="UTF-8" standalone="no"?>
<svg xmlns:xlink="http://www.w3.org/1999/xlink" height="192.4px" width="337.45px" xmlns="http://www.w3.org/2000/svg">
  <g transform="matrix(1.0, 0.0, 0.0, 1.0, -2.2, -0.75)">
    <g transform="matrix(1.0, 0.0, 0.0, 1.0, 0.0, 0.0)">
      <use fill="#000000" fill-opacity="0.68235296" height="192.4" transform="matrix(0.0186, 0.0, 0.0, 0.0186, 116.0, 18.0)" width="337.45" xlink:href="#font_Ex_Rounded__0"/>
      <use fill="#000000" fill-opacity="0.68235296" height="192.4" transform="matrix(0.0186, 0.0, 0.0, 0.0186, 119.2, 18.0)" width="337.45" xlink:href="#font_Ex_Rounded_H0"/>
      <use fill="#000000" fill-opacity="0.68235296" height="192.4" transform="matrix(0.0186, 0.0, 0.0, 0.0186, 131.45, 18.0)" width="337.45" xlink:href="#font_Ex_Rounded_o0"/>
      <use fill="#000000" fill-opacity="0.68235296" height="192.4" transform="matrix(0.0186, 0.0, 0.0, 0.0186, 141.0, 18.0)" width="337.45" xlink:href="#font_Ex_Rounded_l0"/>
      <use fill="#000000" fill-opacity="0.68235296" height="192.4" transform="matrix(0.0186, 0.0, 0.0, 0.0186, 144.2, 18.0)" width="337.45" xlink:href="#font_Ex_Rounded_a0"/>
      <use fill="#000000" fill-opacity="0.68235296" height="192.4" transform="matrix(0.0186, 0.0, 0.0, 0.0186, 158.6, 18.0)" width="337.45" xlink:href="#font_Ex_Rounded_a0"/>
      <use fill="#000000" fill-opacity="0.68235296" height="192.4" transform="matrix(0.0186, 0.0, 0.0, 0.0186, 168.15, 18.0)" width="337.45" xlink:href="#font_Ex_Rounded_m0"/>
      <use fill="#000000" fill-opacity="0.68235296" height="192.4" transform="matrix(0.0186, 0.0, 0.0, 0.0186, 182.95, 18.0)" width="337.45" xlink:href="#font_Ex_Rounded_i0"/>
      <use fill="#000000" fill-opacity="0.68235296" height="192.4" transform="matrix(0.0186, 0.0, 0.0, 0.0186, 186.15, 18.0)" width="337.45" xlink:href="#font_Ex_Rounded_g0"/>
      <use fill="#000000" fill-opacity="0.68235296" height="192.4" transform="matrix(0.0186, 0.0, 0.0, 0.0186, 195.7, 18.0)" width="337.45" xlink:href="#font_Ex_Rounded_u0"/>
      <use fill="#000000" fill-opacity="0.68235296" height="192.4" transform="matrix(0.0186, 0.0, 0.0, 0.0186, 204.6, 18.0)" width="337.45" xlink:href="#font_Ex_Rounded_i0"/>
      <use fill="#000000" fill-opacity="0.68235296" height="192.4" transform="matrix(0.0186, 0.0, 0.0, 0.0186, 207.8, 18.0)" width="337.45" xlink:href="#font_Ex_Rounded_t0"/>
      <use fill="#000000" fill-opacity="0.68235296" height="192.4" transform="matrix(0.0186, 0.0, 0.0, 0.0186, 212.9, 18.0)" width="337.45" xlink:href="#font_Ex_Rounded_o0"/>
      <use fill="#000000" fill-opacity="0.68235296" height="192.4" transform="matrix(0.0186, 0.0, 0.0, 0.0186, 222.45, 18.0)" width="337.45" xlink:href="#font_Ex_Rounded__2"/>
    </g>
    <g transform="matrix(1.0, 0.0, 0.0, 1.0, 0.0, 0.0)">
      <use fill="#000000" fill-opacity="0.68235296" height="192.4" transform="matrix(0.0186, 0.0, 0.0, 0.0186, 31.0, 42.0)" width="337.45" xlink:href="#font_Ex_Rounded_T0"/>
      <use fill="#000000" fill-opacity="0.68235296" height="192.4" transform="matrix(0.0186, 0.0, 0.0, 0.0186, 39.7, 42.0)" width="337.45" xlink:href="#font_Ex_Rounded_e0"/>
      <use fill="#000000" fill-opacity="0.68235296" height="192.4" transform="matrix(0.0186, 0.0, 0.0, 0.0186, 54.1, 42.0)" width="337.45" xlink:href="#font_Ex_Rounded_i0"/>
      <use fill="#000000" fill-opacity="0.68235296" height="192.4" transform="matrix(0.0186, 0.0, 0.0, 0.0186, 57.3, 42.0)" width="337.45" xlink:href="#font_Ex_Rounded_n0"/>
      <use fill="#000000" fill-opacity="0.68235296" height="192.4" transform="matrix(0.0186, 0.0, 0.0, 0.0186, 66.6, 42.0)" width="337.45" xlink:href="#font_Ex_Rounded_v0"/>
      <use fill="#000000" fill-opacity="0.68235296" height="192.4" transform="matrix(0.0186, 0.0, 0.0, 0.0186, 74.45, 42.0)" width="337.45" xlink:href="#font_Ex_Rounded_i0"/>
      <use fill="#000000" fill-opacity="0.68235296" height="192.4" transform="matrix(0.0186, 0.0, 0.0, 0.0186, 77.65, 42.0)" width="337.45" xlink:href="#font_Ex_Rounded_t0"/>
      <use fill="#000000" fill-opacity="0.68235296" height="192.4" transform="matrix(0.0186, 0.0, 0.0, 0.0186, 82.75, 42.0)" width="337.45" xlink:href="#font_Ex_Rounded_o0"/>
      <use fill="#000000" fill-opacity="0.68235296" height="192.4" transform="matrix(0.0186, 0.0, 0.0, 0.0186, 97.15, 42.0)" width="337.45" xlink:href="#font_Ex_Rounded_p0"/>
      <use fill="#000000" fill-opacity="0.68235296" height="192.4" transform="matrix(0.0186, 0.0, 0.0, 0.0186, 107.1, 42.0)" width="337.45" xlink:href="#font_Ex_Rounded_a0"/>
      <use fill="#000000" fill-opacity="0.68235296" height="192.4" transform="matrix(0.0186, 0.0, 0.0, 0.0186, 116.65, 42.0)" width="337.45" xlink:href="#font_Ex_Rounded_r0"/>
      <use fill="#000000" fill-opacity="0.68235296" height="192.4" transform="matrix(0.0186, 0.0, 0.0, 0.0186, 121.95, 42.0)" width="337.45" xlink:href="#font_Ex_Rounded_a0"/>
      <use fill="#000000" fill-opacity="0.68235296" height="192.4" transform="matrix(0.0186, 0.0, 0.0, 0.0186, 136.35, 42.0)" width="337.45" xlink:href="#font_Ex_Rounded_q0"/>
      <use fill="#000000" fill-opacity="0.68235296" height="192.4" transform="matrix(0.0186, 0.0, 0.0, 0.0186, 146.3, 42.0)" width="337.45" xlink:href="#font_Ex_Rounded_u0"/>
      <use fill="#000000" fill-opacity="0.68235296" height="192.4" transform="matrix(0.0186, 0.0, 0.0, 0.0186, 155.2, 42.0)" width="337.45" xlink:href="#font_Ex_Rounded_e0"/>
      <use fill="#000000" fill-opacity="0.68235296" height="192.4" transform="matrix(0.0186, 0.0, 0.0, 0.0186, 169.6, 42.0)" width="337.45" xlink:href="#font_Ex_Rounded_j0"/>
      <use fill="#000000" fill-opacity="0.68235296" height="192.4" transform="matrix(0.0186, 0.0, 0.0, 0.0186, 173.0, 42.0)" width="337.45" xlink:href="#font_Ex_Rounded_u0"/>
      <use fill="#000000" fill-opacity="0.68235296" height="192.4" transform="matrix(0.0186, 0.0, 0.0, 0.0186, 181.9, 42.0)" width="337.45" xlink:href="#font_Ex_Rounded_g0"/>
      <use fill="#000000" fill-opacity="0.68235296" height="192.4" transform="matrix(0.0186, 0.0, 0.0, 0.0186, 191.45, 42.0)" width="337.45" xlink:href="#font_Ex_Rounded_u0"/>
      <use fill="#000000" fill-opacity="0.68235296" height="192.4" transform="matrix(0.0186, 0.0, 0.0, 0.0186, 200.35, 42.0)" width="337.45" xlink:href="#font_Ex_Rounded_e0"/>
      <use fill="#000000" fill-opacity="0.68235296" height="192.4" transform="matrix(0.0186, 0.0, 0.0, 0.0186, 209.9, 42.0)" width="337.45" xlink:href="#font_Ex_Rounded_m0"/>
      <use fill="#000000" fill-opacity="0.68235296" height="192.4" transform="matrix(0.0186, 0.0, 0.0, 0.0186, 224.7, 42.0)" width="337.45" xlink:href="#font_Ex_Rounded_o0"/>
      <use fill="#000000" fill-opacity="0.68235296" height="192.4" transform="matrix(0.0186, 0.0, 0.0, 0.0186, 234.25, 42.0)" width="337.45" xlink:href="#font_Ex_Rounded_s0"/>
      <use fill="#000000" fill-opacity="0.68235296" height="192.4" transform="matrix(0.0186, 0.0, 0.0, 0.0186, 247.35, 42.0)" width="337.45" xlink:href="#font_Ex_Rounded_a0"/>
      <use fill="#000000" fill-opacity="0.68235296" height="192.4" transform="matrix(0.0186, 0.0, 0.0, 0.0186, 256.9, 42.0)" width="337.45" xlink:href="#font_Ex_Rounded_l0"/>
      <use fill="#000000" fill-opacity="0.68235296" height="192.4" transform="matrix(0.0186, 0.0, 0.0, 0.0186, 264.95, 42.0)" width="337.45" xlink:href="#font_Ex_Rounded_b0"/>
      <use fill="#000000" fill-opacity="0.68235296" height="192.4" transform="matrix(0.0186, 0.0, 0.0, 0.0186, 274.7, 42.0)" width="337.45" xlink:href="#font_Ex_Rounded_i0"/>
      <use fill="#000000" fill-opacity="0.68235296" height="192.4" transform="matrix(0.0186, 0.0, 0.0, 0.0186, 277.9, 42.0)" width="337.45" xlink:href="#font_Ex_Rounded_n0"/>
      <use fill="#000000" fill-opacity="0.68235296" height="192.4" transform="matrix(0.0186, 0.0, 0.0, 0.0186, 287.2, 42.0)" width="337.45" xlink:href="#font_Ex_Rounded_g0"/>
      <use fill="#000000" fill-opacity="0.68235296" height="192.4" transform="matrix(0.0186, 0.0, 0.0, 0.0186, 296.75, 42.0)" width="337.45" xlink:href="#font_Ex_Rounded_o0"/>
      <use fill="#000000" fill-opacity="0.68235296" height="192.4" transform="matrix(0.0186, 0.0, 0.0, 0.0186, 306.3, 42.0)" width="337.45" xlink:href="#font_Ex_Rounded_.0"/>
    </g>
    <g transform="matrix(1.0, 0.0, 0.0, 1.0, 0.0, 0.0)">
      <use fill="#000000" fill-opacity="0.68235296" height="192.4" transform="matrix(0.0186, 0.0, 0.0, 0.0186, 23.0, 91.0)" width="337.45" xlink:href="#font_Ex_Rounded_I0"/>
      <use fill="#000000" fill-opacity="0.68235296" height="192.4" transform="matrix(0.0186, 0.0, 0.0, 0.0186, 26.6, 91.0)" width="337.45" xlink:href="#font_Ex_Rounded_d0"/>
      <use fill="#000000" fill-opacity="0.68235296" height="192.4" transform="matrix(0.0186, 0.0, 0.0, 0.0186, 36.35, 91.0)" width="337.45" xlink:href="#font_Ex_Rounded_e0"/>
      <use fill="#000000" fill-opacity="0.68235296" height="192.4" transform="matrix(0.0186, 0.0, 0.0, 0.0186, 45.9, 91.0)" width="337.45" xlink:href="#font_Ex_Rounded_n0"/>
      <use fill="#000000" fill-opacity="0.68235296" height="192.4" transform="matrix(0.0186, 0.0, 0.0, 0.0186, 55.2, 91.0)" width="337.45" xlink:href="#font_Ex_Rounded_t0"/>
      <use fill="#000000" fill-opacity="0.68235296" height="192.4" transform="matrix(0.0186, 0.0, 0.0, 0.0186, 60.3, 91.0)" width="337.45" xlink:href="#font_Ex_Rounded_i0"/>
      <use fill="#000000" fill-opacity="0.68235296" height="192.4" transform="matrix(0.0186, 0.0, 0.0, 0.0186, 63.5, 91.0)" width="337.45" xlink:href="#font_Ex_Rounded_f0"/>
      <use fill="#000000" fill-opacity="0.68235296" height="192.4" transform="matrix(0.0186, 0.0, 0.0, 0.0186, 68.8, 91.0)" width="337.45" xlink:href="#font_Ex_Rounded_i0"/>
      <use fill="#000000" fill-opacity="0.68235296" height="192.4" transform="matrix(0.0186, 0.0, 0.0, 0.0186, 72.0, 91.0)" width="337.45" xlink:href="#font_Ex_Rounded_c0"/>
      <use fill="#000000" fill-opacity="0.68235296" height="192.4" transform="matrix(0.0186, 0.0, 0.0, 0.0186, 79.85, 91.0)" width="337.45" xlink:href="#font_Ex_Rounded_a0"/>
      <use fill="#000000" fill-opacity="0.68235296" height="192.4" transform="matrix(0.0186, 0.0, 0.0, 0.0186, 94.25, 91.0)" width="337.45" xlink:href="#font_Ex_Rounded_l0"/>
      <use fill="#000000" fill-opacity="0.68235296" height="192.4" transform="matrix(0.0186, 0.0, 0.0, 0.0186, 97.45, 91.0)" width="337.45" xlink:href="#font_Ex_Rounded_a0"/>
      <use fill="#000000" fill-opacity="0.68235296" height="192.4" transform="matrix(0.0186, 0.0, 0.0, 0.0186, 111.85, 91.0)" width="337.45" xlink:href="#font_Ex_Rounded_i0"/>
      <use fill="#000000" fill-opacity="0.68235296" height="192.4" transform="matrix(0.0186, 0.0, 0.0, 0.0186, 115.05, 91.0)" width="337.45" xlink:href="#font_Ex_Rounded_m0"/>
      <use fill="#000000" fill-opacity="0.68235296" height="192.4" transform="matrix(0.0186, 0.0, 0.0, 0.0186, 129.85, 91.0)" width="337.45" xlink:href="#font_Ex_Rounded_a0"/>
      <use fill="#000000" fill-opacity="0.68235296" height="192.4" transform="matrix(0.0186, 0.0, 0.0, 0.0186, 139.4, 91.0)" width="337.45" xlink:href="#font_Ex_Rounded_g0"/>
      <use fill="#000000" fill-opacity="0.68235296" height="192.4" transform="matrix(0.0186, 0.0, 0.0, 0.0186, 148.95, 91.0)" width="337.45" xlink:href="#font_Ex_Rounded_e0"/>
      <use fill="#000000" fill-opacity="0.68235296" height="192.4" transform="matrix(0.0186, 0.0, 0.0, 0.0186, 158.5, 91.0)" width="337.45" xlink:href="#font_Ex_Rounded_n0"/>
      <use fill="#000000" fill-opacity="0.68235296" height="192.4" transform="matrix(0.0186, 0.0, 0.0, 0.0186, 172.65, 91.0)" width="337.45" xlink:href="#font_Ex_Rounded_q0"/>
      <use fill="#000000" fill-opacity="0.68235296" height="192.4" transform="matrix(0.0186, 0.0, 0.0, 0.0186, 182.6, 91.0)" width="337.45" xlink:href="#font_Ex_Rounded_u0"/>
      <use fill="#000000" fill-opacity="0.68235296" height="192.4" transform="matrix(0.0186, 0.0, 0.0, 0.0186, 191.5, 91.0)" width="337.45" xlink:href="#font_Ex_Rounded_e0"/>
      <use fill="#000000" fill-opacity="0.68235296" height="192.4" transform="matrix(0.0186, 0.0, 0.0, 0.0186, 205.9, 91.0)" width="337.45" xlink:href="#font_Ex_Rounded_c0"/>
      <use fill="#000000" fill-opacity="0.68235296" height="192.4" transform="matrix(0.0186, 0.0, 0.0, 0.0186, 213.75, 91.0)" width="337.45" xlink:href="#font_Ex_Rounded_o0"/>
      <use fill="#000000" fill-opacity="0.68235296" height="192.4" transform="matrix(0.0186, 0.0, 0.0, 0.0186, 223.3, 91.0)" width="337.45" xlink:href="#font_Ex_Rounded_r0"/>
      <use fill="#000000" fill-opacity="0.68235296" height="192.4" transform="matrix(0.0186, 0.0, 0.0, 0.0186, 228.6, 91.0)" width="337.45" xlink:href="#font_Ex_Rounded_r0"/>
      <use fill="#000000" fill-opacity="0.68235296" height="192.4" transform="matrix(0.0186, 0.0, 0.0, 0.0186, 233.9, 91.0)" width="337.45" xlink:href="#font_Ex_Rounded_e0"/>
      <use fill="#000000" fill-opacity="0.68235296" height="192.4" transform="matrix(0.0186, 0.0, 0.0, 0.0186, 243.45, 91.0)" width="337.45" xlink:href="#font_Ex_Rounded_s0"/>
      <use fill="#000000" fill-opacity="0.68235296" height="192.4" transform="matrix(0.0186, 0.0, 0.0, 0.0186, 251.7, 91.0)" width="337.45" xlink:href="#font_Ex_Rounded_p0"/>
      <use fill="#000000" fill-opacity="0.68235296" height="192.4" transform="matrix(0.0186, 0.0, 0.0, 0.0186, 261.65, 91.0)" width="337.45" xlink:href="#font_Ex_Rounded_o0"/>
      <use fill="#000000" fill-opacity="0.68235296" height="192.4" transform="matrix(0.0186, 0.0, 0.0, 0.0186, 271.2, 91.0)" width="337.45" xlink:href="#font_Ex_Rounded_n0"/>
      <use fill="#000000" fill-opacity="0.68235296" height="192.4" transform="matrix(0.0186, 0.0, 0.0, 0.0186, 280.5, 91.0)" width="337.45" xlink:href="#font_Ex_Rounded_d0"/>
      <use fill="#000000" fill-opacity="0.68235296" height="192.4" transform="matrix(0.0186, 0.0, 0.0, 0.0186, 290.25, 91.0)" width="337.45" xlink:href="#font_Ex_Rounded_e0"/>
      <use fill="#000000" fill-opacity="0.68235296" height="192.4" transform="matrix(0.0186, 0.0, 0.0, 0.0186, 304.65, 91.0)" width="337.45" xlink:href="#font_Ex_Rounded_a0"/>
      <use fill="#000000" fill-opacity="0.68235296" height="192.4" transform="matrix(0.0186, 0.0, 0.0, 0.0186, 314.2, 91.0)" width="337.45" xlink:href="#font_Ex_Rounded_l0"/>
    </g>
    <g transform="matrix(1.0, 0.0, 0.0, 1.0, 0.0, 0.0)">
      <use fill="#000000" fill-opacity="0.68235296" height="192.4" transform="matrix(0.0186, 0.0, 0.0, 0.0186, 1.0, 115.0)" width="337.45" xlink:href="#font_Ex_Rounded_m0"/>
      <use fill="#000000" fill-opacity="0.68235296" height="192.4" transform="matrix(0.0186, 0.0, 0.0, 0.0186, 15.8, 115.0)" width="337.45" xlink:href="#font_Ex_Rounded_e0"/>
      <use fill="#000000" fill-opacity="0.68235296" height="192.4" transform="matrix(0.0186, 0.0, 0.0, 0.0186, 25.35, 115.0)" width="337.45" xlink:href="#font_Ex_Rounded_n0"/>
      <use fill="#000000" fill-opacity="0.68235296" height="192.4" transform="matrix(0.0186, 0.0, 0.0, 0.0186, 34.65, 115.0)" width="337.45" xlink:href="#font_Ex_Rounded_s0"/>
      <use fill="#000000" fill-opacity="0.68235296" height="192.4" transform="matrix(0.0186, 0.0, 0.0, 0.0186, 42.9, 115.0)" width="337.45" xlink:href="#font_Ex_Rounded_a0"/>
      <use fill="#000000" fill-opacity="0.68235296" height="192.4" transform="matrix(0.0186, 0.0, 0.0, 0.0186, 52.45, 115.0)" width="337.45" xlink:href="#font_Ex_Rounded_j0"/>
      <use fill="#000000" fill-opacity="0.68235296" height="192.4" transform="matrix(0.0186, 0.0, 0.0, 0.0186, 55.85, 115.0)" width="337.45" xlink:href="#font_Ex_Rounded_e0"/>
      <use fill="#000000" fill-opacity="0.68235296" height="192.4" transform="matrix(0.0186, 0.0, 0.0, 0.0186, 70.25, 115.0)" width="337.45" xlink:href="#font_Ex_Rounded_q0"/>
      <use fill="#000000" fill-opacity="0.68235296" height="192.4" transform="matrix(0.0186, 0.0, 0.0, 0.0186, 80.2, 115.0)" width="337.45" xlink:href="#font_Ex_Rounded_u0"/>
      <use fill="#000000" fill-opacity="0.68235296" height="192.4" transform="matrix(0.0186, 0.0, 0.0, 0.0186, 89.1, 115.0)" width="337.45" xlink:href="#font_Ex_Rounded_e0"/>
      <use fill="#000000" fill-opacity="0.68235296" height="192.4" transform="matrix(0.0186, 0.0, 0.0, 0.0186, 103.5, 115.0)" width="337.45" xlink:href="#font_Ex_Rounded_e0"/>
      <use fill="#000000" fill-opacity="0.68235296" height="192.4" transform="matrix(0.0186, 0.0, 0.0, 0.0186, 113.05, 115.0)" width="337.45" xlink:href="#font_Ex_Rounded_s0"/>
      <use fill="#000000" fill-opacity="0.68235296" height="192.4" transform="matrix(0.0186, 0.0, 0.0, 0.0186, 121.3, 115.0)" width="337.45" xlink:href="#font_Ex_Rounded_c0"/>
      <use fill="#000000" fill-opacity="0.68235296" height="192.4" transform="matrix(0.0186, 0.0, 0.0, 0.0186, 129.15, 115.0)" width="337.45" xlink:href="#font_Ex_Rounded_u0"/>
      <use fill="#000000" fill-opacity="0.68235296" height="192.4" transform="matrix(0.0186, 0.0, 0.0, 0.0186, 138.05, 115.0)" width="337.45" xlink:href="#font_Ex_Rounded_c0"/>
      <use fill="#000000" fill-opacity="0.68235296" height="192.4" transform="matrix(0.0186, 0.0, 0.0, 0.0186, 145.9, 115.0)" width="337.45" xlink:href="#font_Ex_Rounded_h0"/>
      <use fill="#000000" fill-opacity="0.68235296" height="192.4" transform="matrix(0.0186, 0.0, 0.0, 0.0186, 154.8, 115.0)" width="337.45" xlink:href="#font_Ex_Rounded_e0"/>
      <use fill="#000000" fill-opacity="0.68235296" height="192.4" transform="matrix(0.0186, 0.0, 0.0, 0.0186, 164.35, 115.0)" width="337.45" xlink:href="#font_Ex_Rounded_s0"/>
      <use fill="#000000" fill-opacity="0.68235296" height="192.4" transform="matrix(0.0186, 0.0, 0.0, 0.0186, 177.45, 115.0)" width="337.45" xlink:href="#font_Ex_Rounded_d0"/>
      <use fill="#000000" fill-opacity="0.68235296" height="192.4" transform="matrix(0.0186, 0.0, 0.0, 0.0186, 187.2, 115.0)" width="337.45" xlink:href="#font_Ex_Rounded_e0"/>
      <use fill="#000000" fill-opacity="0.68235296" height="192.4" transform="matrix(0.0186, 0.0, 0.0, 0.0186, 196.75, 115.0)" width="337.45" xlink:href="#font_Ex_Rounded_s0"/>
      <use fill="#000000" fill-opacity="0.68235296" height="192.4" transform="matrix(0.0186, 0.0, 0.0, 0.0186, 205.0, 115.0)" width="337.45" xlink:href="#font_Ex_Rounded_p0"/>
      <use fill="#000000" fill-opacity="0.68235296" height="192.4" transform="matrix(0.0186, 0.0, 0.0, 0.0186, 214.95, 115.0)" width="337.45" xlink:href="#font_Ex_Rounded_u0"/>
      <use fill="#000000" fill-opacity="0.68235296" height="192.4" transform="matrix(0.0186, 0.0, 0.0, 0.0186, 223.85, 115.0)" width="337.45" xlink:href="#font_Ex_Rounded__3"/>
      <use fill="#000000" fill-opacity="0.68235296" height="192.4" transform="matrix(0.0186, 0.0, 0.0, 0.0186, 233.4, 115.0)" width="337.45" xlink:href="#font_Ex_Rounded_s0"/>
      <use fill="#000000" fill-opacity="0.68235296" height="192.4" transform="matrix(0.0186, 0.0, 0.0, 0.0186, 246.5, 115.0)" width="337.45" xlink:href="#font_Ex_Rounded_d0"/>
      <use fill="#000000" fill-opacity="0.68235296" height="192.4" transform="matrix(0.0186, 0.0, 0.0, 0.0186, 256.25, 115.0)" width="337.45" xlink:href="#font_Ex_Rounded_e0"/>
      <use fill="#000000" fill-opacity="0.68235296" height="192.4" transform="matrix(0.0186, 0.0, 0.0, 0.0186, 270.65, 115.0)" width="337.45" xlink:href="#font_Ex_Rounded_h0"/>
      <use fill="#000000" fill-opacity="0.68235296" height="192.4" transform="matrix(0.0186, 0.0, 0.0, 0.0186, 279.55, 115.0)" width="337.45" xlink:href="#font_Ex_Rounded_a0"/>
      <use fill="#000000" fill-opacity="0.68235296" height="192.4" transform="matrix(0.0186, 0.0, 0.0, 0.0186, 289.1, 115.0)" width="337.45" xlink:href="#font_Ex_Rounded_c0"/>
      <use fill="#000000" fill-opacity="0.68235296" height="192.4" transform="matrix(0.0186, 0.0, 0.0, 0.0186, 296.95, 115.0)" width="337.45" xlink:href="#font_Ex_Rounded_e0"/>
      <use fill="#000000" fill-opacity="0.68235296" height="192.4" transform="matrix(0.0186, 0.0, 0.0, 0.0186, 306.5, 115.0)" width="337.45" xlink:href="#font_Ex_Rounded_r0"/>
      <use fill="#000000" fill-opacity="0.68235296" height="192.4" transform="matrix(0.0186, 0.0, 0.0, 0.0186, 316.65, 115.0)" width="337.45" xlink:href="#font_Ex_Rounded_c0"/>
      <use fill="#000000" fill-opacity="0.68235296" height="192.4" transform="matrix(0.0186, 0.0, 0.0, 0.0186, 324.5, 115.0)" width="337.45" xlink:href="#font_Ex_Rounded_l0"/>
      <use fill="#000000" fill-opacity="0.68235296" height="192.4" transform="matrix(0.0186, 0.0, 0.0, 0.0186, 327.7, 115.0)" width="337.45" xlink:href="#font_Ex_Rounded_i0"/>
      <use fill="#000000" fill-opacity="0.68235296" height="192.4" transform="matrix(0.0186, 0.0, 0.0, 0.0186, 330.9, 115.0)" width="337.45" xlink:href="#font_Ex_Rounded_c0"/>
    </g>
    <g transform="matrix(1.0, 0.0, 0.0, 1.0, 0.0, 0.0)">
      <use fill="#000000" fill-opacity="0.68235296" height="192.4" transform="matrix(0.0186, 0.0, 0.0, 0.0186, 5.0, 139.0)" width="337.45" xlink:href="#font_Ex_Rounded_e0"/>
      <use fill="#000000" fill-opacity="0.68235296" height="192.4" transform="matrix(0.0186, 0.0, 0.0, 0.0186, 14.55, 139.0)" width="337.45" xlink:href="#font_Ex_Rounded_n0"/>
      <use fill="#000000" fill-opacity="0.68235296" height="192.4" transform="matrix(0.0186, 0.0, 0.0, 0.0186, 28.7, 139.0)" width="337.45" xlink:href="#font_Ex_Rounded_e0"/>
      <use fill="#000000" fill-opacity="0.68235296" height="192.4" transform="matrix(0.0186, 0.0, 0.0, 0.0186, 38.25, 139.0)" width="337.45" xlink:href="#font_Ex_Rounded_l0"/>
      <use fill="#000000" fill-opacity="0.68235296" height="192.4" transform="matrix(0.0186, 0.0, 0.0, 0.0186, 46.3, 139.0)" width="337.45" xlink:href="#font_Ex_Rounded_b0"/>
      <use fill="#000000" fill-opacity="0.68235296" height="192.4" transform="matrix(0.0186, 0.0, 0.0, 0.0186, 56.05, 139.0)" width="337.45" xlink:href="#font_Ex_Rounded_o0"/>
      <use fill="#000000" fill-opacity="0.68235296" height="192.4" transform="matrix(0.0186, 0.0, 0.0, 0.0186, 65.6, 139.0)" width="337.45" xlink:href="#font_Ex_Rounded_t0"/>
      <use fill="#000000" fill-opacity="0.68235296" height="192.4" transform="matrix(0.0186, 0.0, 0.0, 0.0186, 70.7, 139.0)" width="337.45" xlink:href="#font_Ex_Rounded__4"/>
      <use fill="#000000" fill-opacity="0.68235296" height="192.4" transform="matrix(0.0186, 0.0, 0.0, 0.0186, 80.25, 139.0)" width="337.45" xlink:href="#font_Ex_Rounded_n0"/>
      <use fill="#000000" fill-opacity="0.68235296" height="192.4" transform="matrix(0.0186, 0.0, 0.0, 0.0186, 128.35, 139.0)" width="337.45" xlink:href="#font_Ex_Rounded_.0"/>
      <use fill="#000000" fill-opacity="0.68235296" height="192.4" transform="matrix(0.0186, 0.0, 0.0, 0.0186, 136.6, 139.0)" width="337.45" xlink:href="#font_Ex_Rounded_R0"/>
      <use fill="#000000" fill-opacity="0.68235296" height="192.4" transform="matrix(0.0186, 0.0, 0.0, 0.0186, 146.15, 139.0)" width="337.45" xlink:href="#font_Ex_Rounded_e0"/>
      <use fill="#000000" fill-opacity="0.68235296" height="192.4" transform="matrix(0.0186, 0.0, 0.0, 0.0186, 155.7, 139.0)" width="337.45" xlink:href="#font_Ex_Rounded_c0"/>
      <use fill="#000000" fill-opacity="0.68235296" height="192.4" transform="matrix(0.0186, 0.0, 0.0, 0.0186, 163.55, 139.0)" width="337.45" xlink:href="#font_Ex_Rounded_u0"/>
      <use fill="#000000" fill-opacity="0.68235296" height="192.4" transform="matrix(0.0186, 0.0, 0.0, 0.0186, 172.45, 139.0)" width="337.45" xlink:href="#font_Ex_Rounded_e0"/>
      <use fill="#000000" fill-opacity="0.68235296" height="192.4" transform="matrix(0.0186, 0.0, 0.0, 0.0186, 182.0, 139.0)" width="337.45" xlink:href="#font_Ex_Rounded_r0"/>
      <use fill="#000000" fill-opacity="0.68235296" height="192.4" transform="matrix(0.0186, 0.0, 0.0, 0.0186, 187.3, 139.0)" width="337.45" xlink:href="#font_Ex_Rounded_d0"/>
      <use fill="#000000" fill-opacity="0.68235296" height="192.4" transform="matrix(0.0186, 0.0, 0.0, 0.0186, 197.05, 139.0)" width="337.45" xlink:href="#font_Ex_Rounded_a0"/>
      <use fill="#000000" fill-opacity="0.68235296" height="192.4" transform="matrix(0.0186, 0.0, 0.0, 0.0186, 211.45, 139.0)" width="337.45" xlink:href="#font_Ex_Rounded_q0"/>
      <use fill="#000000" fill-opacity="0.68235296" height="192.4" transform="matrix(0.0186, 0.0, 0.0, 0.0186, 221.4, 139.0)" width="337.45" xlink:href="#font_Ex_Rounded_u0"/>
      <use fill="#000000" fill-opacity="0.68235296" height="192.4" transform="matrix(0.0186, 0.0, 0.0, 0.0186, 230.3, 139.0)" width="337.45" xlink:href="#font_Ex_Rounded_e0"/>
      <use fill="#000000" fill-opacity="0.68235296" height="192.4" transform="matrix(0.0186, 0.0, 0.0, 0.0186, 244.7, 139.0)" width="337.45" xlink:href="#font_Ex_Rounded_d0"/>
      <use fill="#000000" fill-opacity="0.68235296" height="192.4" transform="matrix(0.0186, 0.0, 0.0, 0.0186, 254.45, 139.0)" width="337.45" xlink:href="#font_Ex_Rounded_e0"/>
      <use fill="#000000" fill-opacity="0.68235296" height="192.4" transform="matrix(0.0186, 0.0, 0.0, 0.0186, 264.0, 139.0)" width="337.45" xlink:href="#font_Ex_Rounded_b0"/>
      <use fill="#000000" fill-opacity="0.68235296" height="192.4" transform="matrix(0.0186, 0.0, 0.0, 0.0186, 273.75, 139.0)" width="337.45" xlink:href="#font_Ex_Rounded_e0"/>
      <use fill="#000000" fill-opacity="0.68235296" height="192.4" transform="matrix(0.0186, 0.0, 0.0, 0.0186, 283.3, 139.0)" width="337.45" xlink:href="#font_Ex_Rounded_s0"/>
      <use fill="#000000" fill-opacity="0.68235296" height="192.4" transform="matrix(0.0186, 0.0, 0.0, 0.0186, 296.4, 139.0)" width="337.45" xlink:href="#font_Ex_Rounded_t0"/>
      <use fill="#000000" fill-opacity="0.68235296" height="192.4" transform="matrix(0.0186, 0.0, 0.0, 0.0186, 301.5, 139.0)" width="337.45" xlink:href="#font_Ex_Rounded_e0"/>
      <use fill="#000000" fill-opacity="0.68235296" height="192.4" transform="matrix(0.0186, 0.0, 0.0, 0.0186, 311.05, 139.0)" width="337.45" xlink:href="#font_Ex_Rounded_n0"/>
      <use fill="#000000" fill-opacity="0.68235296" height="192.4" transform="matrix(0.0186, 0.0, 0.0, 0.0186, 320.35, 139.0)" width="337.45" xlink:href="#font_Ex_Rounded_e0"/>
      <use fill="#000000" fill-opacity="0.68235296" height="192.4" transform="matrix(0.0186, 0.0, 0.0, 0.0186, 329.9, 139.0)" width="337.45" xlink:href="#font_Ex_Rounded_r0"/>
    </g>
    <g transform="matrix(1.0, 0.0, 0.0, 1.0, 0.0, 0.0)">
      <use fill="#000000" fill-opacity="0.68235296" height="192.4" transform="matrix(0.0186, 0.0, 0.0, 0.0186, 27.0, 164.0)" width="337.45" xlink:href="#font_Ex_Rounded_e0"/>
      <use fill="#000000" fill-opacity="0.68235296" height="192.4" transform="matrix(0.0186, 0.0, 0.0, 0.0186, 36.55, 164.0)" width="337.45" xlink:href="#font_Ex_Rounded_n0"/>
      <use fill="#000000" fill-opacity="0.68235296" height="192.4" transform="matrix(0.0186, 0.0, 0.0, 0.0186, 50.7, 164.0)" width="337.45" xlink:href="#font_Ex_Rounded_c0"/>
      <use fill="#000000" fill-opacity="0.68235296" height="192.4" transform="matrix(0.0186, 0.0, 0.0, 0.0186, 58.55, 164.0)" width="337.45" xlink:href="#font_Ex_Rounded_u0"/>
      <use fill="#000000" fill-opacity="0.68235296" height="192.4" transform="matrix(0.0186, 0.0, 0.0, 0.0186, 67.45, 164.0)" width="337.45" xlink:href="#font_Ex_Rounded_e0"/>
      <use fill="#000000" fill-opacity="0.68235296" height="192.4" transform="matrix(0.0186, 0.0, 0.0, 0.0186, 77.0, 164.0)" width="337.45" xlink:href="#font_Ex_Rounded_n0"/>
      <use fill="#000000" fill-opacity="0.68235296" height="192.4" transform="matrix(0.0186, 0.0, 0.0, 0.0186, 86.3, 164.0)" width="337.45" xlink:href="#font_Ex_Rounded_t0"/>
      <use fill="#000000" fill-opacity="0.68235296" height="192.4" transform="matrix(0.0186, 0.0, 0.0, 0.0186, 91.4, 164.0)" width="337.45" xlink:href="#font_Ex_Rounded_a0"/>
      <use fill="#000000" fill-opacity="0.68235296" height="192.4" transform="matrix(0.0186, 0.0, 0.0, 0.0186, 105.8, 164.0)" width="337.45" xlink:href="#font_Ex_Rounded_t0"/>
      <use fill="#000000" fill-opacity="0.68235296" height="192.4" transform="matrix(0.0186, 0.0, 0.0, 0.0186, 110.9, 164.0)" width="337.45" xlink:href="#font_Ex_Rounded_u0"/>
      <use fill="#000000" fill-opacity="0.68235296" height="192.4" transform="matrix(0.0186, 0.0, 0.0, 0.0186, 119.8, 164.0)" width="337.45" xlink:href="#font_Ex_Rounded_s0"/>
      <use fill="#000000" fill-opacity="0.68235296" height="192.4" transform="matrix(0.0186, 0.0, 0.0, 0.0186, 132.9, 164.0)" width="337.45" xlink:href="#font_Ex_Rounded_c0"/>
      <use fill="#000000" fill-opacity="0.68235296" height="192.4" transform="matrix(0.0186, 0.0, 0.0, 0.0186, 140.75, 164.0)" width="337.45" xlink:href="#font_Ex_Rounded_o0"/>
      <use fill="#000000" fill-opacity="0.68235296" height="192.4" transform="matrix(0.0186, 0.0, 0.0, 0.0186, 150.3, 164.0)" width="337.45" xlink:href="#font_Ex_Rounded_n0"/>
      <use fill="#000000" fill-opacity="0.68235296" height="192.4" transform="matrix(0.0186, 0.0, 0.0, 0.0186, 159.6, 164.0)" width="337.45" xlink:href="#font_Ex_Rounded_o0"/>
      <use fill="#000000" fill-opacity="0.68235296" height="192.4" transform="matrix(0.0186, 0.0, 0.0, 0.0186, 169.15, 164.0)" width="337.45" xlink:href="#font_Ex_Rounded_c0"/>
      <use fill="#000000" fill-opacity="0.68235296" height="192.4" transform="matrix(0.0186, 0.0, 0.0, 0.0186, 177.0, 164.0)" width="337.45" xlink:href="#font_Ex_Rounded_i0"/>
      <use fill="#000000" fill-opacity="0.68235296" height="192.4" transform="matrix(0.0186, 0.0, 0.0, 0.0186, 180.2, 164.0)" width="337.45" xlink:href="#font_Ex_Rounded_m0"/>
      <use fill="#000000" fill-opacity="0.68235296" height="192.4" transform="matrix(0.0186, 0.0, 0.0, 0.0186, 195.0, 164.0)" width="337.45" xlink:href="#font_Ex_Rounded_i0"/>
      <use fill="#000000" fill-opacity="0.68235296" height="192.4" transform="matrix(0.0186, 0.0, 0.0, 0.0186, 198.2, 164.0)" width="337.45" xlink:href="#font_Ex_Rounded_e0"/>
      <use fill="#000000" fill-opacity="0.68235296" height="192.4" transform="matrix(0.0186, 0.0, 0.0, 0.0186, 207.75, 164.0)" width="337.45" xlink:href="#font_Ex_Rounded_n0"/>
      <use fill="#000000" fill-opacity="0.68235296" height="192.4" transform="matrix(0.0186, 0.0, 0.0, 0.0186, 217.05, 164.0)" width="337.45" xlink:href="#font_Ex_Rounded_t0"/>
      <use fill="#000000" fill-opacity="0.68235296" height="192.4" transform="matrix(0.0186, 0.0, 0.0, 0.0186, 222.15, 164.0)" width="337.45" xlink:href="#font_Ex_Rounded_o0"/>
      <use fill="#000000" fill-opacity="0.68235296" height="192.4" transform="matrix(0.0186, 0.0, 0.0, 0.0186, 231.7, 164.0)" width="337.45" xlink:href="#font_Ex_Rounded_s0"/>
      <use fill="#000000" fill-opacity="0.68235296" height="192.4" transform="matrix(0.0186, 0.0, 0.0, 0.0186, 244.8, 164.0)" width="337.45" xlink:href="#font_Ex_Rounded_s0"/>
      <use fill="#000000" fill-opacity="0.68235296" height="192.4" transform="matrix(0.0186, 0.0, 0.0, 0.0186, 253.05, 164.0)" width="337.45" xlink:href="#font_Ex_Rounded_o0"/>
      <use fill="#000000" fill-opacity="0.68235296" height="192.4" transform="matrix(0.0186, 0.0, 0.0, 0.0186, 262.6, 164.0)" width="337.45" xlink:href="#font_Ex_Rounded_b0"/>
      <use fill="#000000" fill-opacity="0.68235296" height="192.4" transform="matrix(0.0186, 0.0, 0.0, 0.0186, 272.35, 164.0)" width="337.45" xlink:href="#font_Ex_Rounded_r0"/>
      <use fill="#000000" fill-opacity="0.68235296" height="192.4" transform="matrix(0.0186, 0.0, 0.0, 0.0186, 277.65, 164.0)" width="337.45" xlink:href="#font_Ex_Rounded_e0"/>
      <use fill="#000000" fill-opacity="0.68235296" height="192.4" transform="matrix(0.0186, 0.0, 0.0, 0.0186, 292.05, 164.0)" width="337.45" xlink:href="#font_Ex_Rounded_l0"/>
      <use fill="#000000" fill-opacity="0.68235296" height="192.4" transform="matrix(0.0186, 0.0, 0.0, 0.0186, 295.25, 164.0)" width="337.45" xlink:href="#font_Ex_Rounded_o0"/>
      <use fill="#000000" fill-opacity="0.68235296" height="192.4" transform="matrix(0.0186, 0.0, 0.0, 0.0186, 304.8, 164.0)" width="337.45" xlink:href="#font_Ex_Rounded_s0"/>
    </g>
    <g transform="matrix(1.0, 0.0, 0.0, 1.0, 0.0, 0.0)">
      <use fill="#000000" fill-opacity="0.68235296" height="192.4" transform="matrix(0.0186, 0.0, 0.0, 0.0186, 51.0, 188.0)" width="337.45" xlink:href="#font_Ex_Rounded_d0"/>
      <use fill="#000000" fill-opacity="0.68235296" height="192.4" transform="matrix(0.0186, 0.0, 0.0, 0.0186, 60.75, 188.0)" width="337.45" xlink:href="#font_Ex_Rounded_e0"/>
      <use fill="#000000" fill-opacity="0.68235296" height="192.4" transform="matrix(0.0186, 0.0, 0.0, 0.0186, 70.3, 188.0)" width="337.45" xlink:href="#font_Ex_Rounded_b0"/>
      <use fill="#000000" fill-opacity="0.68235296" height="192.4" transform="matrix(0.0186, 0.0, 0.0, 0.0186, 80.05, 188.0)" width="337.45" xlink:href="#font_Ex_Rounded_e0"/>
      <use fill="#000000" fill-opacity="0.68235296" height="192.4" transform="matrix(0.0186, 0.0, 0.0, 0.0186, 89.6, 188.0)" width="337.45" xlink:href="#font_Ex_Rounded_r0"/>
      <use fill="#000000" fill-opacity="0.68235296" height="192.4" transform="matrix(0.0186, 0.0, 0.0, 0.0186, 94.9, 188.0)" width="337.45" xlink:href="#font_Ex_Rounded_e0"/>
      <use fill="#000000" fill-opacity="0.68235296" height="192.4" transform="matrix(0.0186, 0.0, 0.0, 0.0186, 104.45, 188.0)" width="337.45" xlink:href="#font_Ex_Rounded_s0"/>
      <use fill="#000000" fill-opacity="0.68235296" height="192.4" transform="matrix(0.0186, 0.0, 0.0, 0.0186, 117.55, 188.0)" width="337.45" xlink:href="#font_Ex_Rounded_y0"/>
      <use fill="#000000" fill-opacity="0.68235296" height="192.4" transform="matrix(0.0186, 0.0, 0.0, 0.0186, 130.45, 188.0)" width="337.45" xlink:href="#font_Ex_Rounded_d0"/>
      <use fill="#000000" fill-opacity="0.68235296" height="192.4" transform="matrix(0.0186, 0.0, 0.0, 0.0186, 140.2, 188.0)" width="337.45" xlink:href="#font_Ex_Rounded_e0"/>
      <use fill="#000000" fill-opacity="0.68235296" height="192.4" transform="matrix(0.0186, 0.0, 0.0, 0.0186, 149.75, 188.0)" width="337.45" xlink:href="#font_Ex_Rounded_r0"/>
      <use fill="#000000" fill-opacity="0.68235296" height="192.4" transform="matrix(0.0186, 0.0, 0.0, 0.0186, 155.05, 188.0)" width="337.45" xlink:href="#font_Ex_Rounded_e0"/>
      <use fill="#000000" fill-opacity="0.68235296" height="192.4" transform="matrix(0.0186, 0.0, 0.0, 0.0186, 164.6, 188.0)" width="337.45" xlink:href="#font_Ex_Rounded_c0"/>
      <use fill="#000000" fill-opacity="0.68235296" height="192.4" transform="matrix(0.0186, 0.0, 0.0, 0.0186, 172.45, 188.0)" width="337.45" xlink:href="#font_Ex_Rounded_h0"/>
      <use fill="#000000" fill-opacity="0.68235296" height="192.4" transform="matrix(0.0186, 0.0, 0.0, 0.0186, 181.35, 188.0)" width="337.45" xlink:href="#font_Ex_Rounded_o0"/>
      <use fill="#000000" fill-opacity="0.68235296" height="192.4" transform="matrix(0.0186, 0.0, 0.0, 0.0186, 190.9, 188.0)" width="337.45" xlink:href="#font_Ex_Rounded_s0"/>
      <use fill="#000000" fill-opacity="0.68235296" height="192.4" transform="matrix(0.0186, 0.0, 0.0, 0.0186, 204.0, 188.0)" width="337.45" xlink:href="#font_Ex_Rounded_d0"/>
      <use fill="#000000" fill-opacity="0.68235296" height="192.4" transform="matrix(0.0186, 0.0, 0.0, 0.0186, 213.75, 188.0)" width="337.45" xlink:href="#font_Ex_Rounded_e0"/>
      <use fill="#000000" fill-opacity="0.68235296" height="192.4" transform="matrix(0.0186, 0.0, 0.0, 0.0186, 228.15, 188.0)" width="337.45" xlink:href="#font_Ex_Rounded_l0"/>
      <use fill="#000000" fill-opacity="0.68235296" height="192.4" transform="matrix(0.0186, 0.0, 0.0, 0.0186, 231.35, 188.0)" width="337.45" xlink:href="#font_Ex_Rounded_a0"/>
      <use fill="#000000" fill-opacity="0.68235296" height="192.4" transform="matrix(0.0186, 0.0, 0.0, 0.0186, 245.75, 188.0)" width="337.45" xlink:href="#font_Ex_Rounded_n0"/>
      <use fill="#000000" fill-opacity="0.68235296" height="192.4" transform="matrix(0.0186, 0.0, 0.0, 0.0186, 255.05, 188.0)" width="337.45" xlink:href="#font_Ex_Rounded_i0"/>
      <use fill="#000000" fill-opacity="0.68235296" height="192.4" transform="matrix(0.0186, 0.0, 0.0, 0.0186, 258.25, 188.0)" width="337.45" xlink:href="#font_Ex_Rounded__5"/>
      <use fill="#000000" fill-opacity="0.68235296" height="192.4" transform="matrix(0.0186, 0.0, 0.0, 0.0186, 267.55, 188.0)" width="337.45" xlink:href="#font_Ex_Rounded_e0"/>
      <use fill="#000000" fill-opacity="0.68235296" height="192.4" transform="matrix(0.0186, 0.0, 0.0, 0.0186, 277.1, 188.0)" width="337.45" xlink:href="#font_Ex_Rounded_z0"/>
      <use fill="#000000" fill-opacity="0.68235296" height="192.4" transform="matrix(0.0186, 0.0, 0.0, 0.0186, 285.55, 188.0)" width="337.45" xlink:href="#font_Ex_Rounded_.0"/>
    </g>
  </g>
  <defs>
    <g id="font_Ex_Rounded__0">
      <path d="M139.0 -553.0 L139.0 -553.0 Q139.0 -529.0 126.0 -514.5 113.5 -499.5 88.0 -499.5 63.0 -499.5 50.0 -514.0 36.5 -528.0 36.5 -551.0 36.5 -572.5 51.5 -586.0 66.0 -600.0 90.0 -600.0 139.0 -600.0 139.0 -553.0 M120.5 -350.0 L120.5 102.5 Q120.5 122.0 110.0 132.5 99.0 143.5 86.0 143.5 70.5 143.5 59.5 132.5 49.0 122.0 49.0 102.5 L49.0 -350.0 Q49.0 -367.5 59.5 -377.5 70.5 -387.0 86.0 -387.0 99.0 -387.0 110.0 -377.5 120.5 -367.5 120.5 -350.0" fill-rule="evenodd" stroke="none"/>
    </g>
    <g id="font_Ex_Rounded_H0">
      <path d="M591.5 -18.5 L591.5 -692.0 Q591.5 -709.5 581.0 -718.5 570.0 -727.0 554.5 -727.0 541.5 -727.0 530.5 -717.5 520.0 -707.5 520.0 -692.0 L520.0 -397.5 122.5 -397.5 122.5 -692.0 Q122.5 -708.5 112.5 -718.0 102.0 -727.0 88.0 -727.0 72.5 -727.0 61.5 -717.5 51.0 -707.5 51.0 -692.0 L51.0 -18.5 Q51.0 -1.0 61.5 9.0 72.5 18.5 88.0 18.5 101.0 18.5 112.0 9.0 122.5 -1.0 122.5 -18.5 L122.5 -328.0 520.0 -328.0 520.0 -18.5 Q520.0 -1.0 530.5 9.0 541.5 18.5 554.5 18.5 570.0 18.5 581.0 9.0 591.5 -1.0 591.5 -18.5" fill-rule="evenodd" stroke="none"/>
    </g>
    <g id="font_Ex_Rounded_o0">
      <path d="M403.5 -264.0 L403.5 -264.0 Q403.5 -151.5 367.0 -100.0 331.0 -49.0 254.0 -49.0 177.0 -49.0 135.5 -127.0 102.5 -187.0 102.5 -264.0 102.5 -361.5 143.0 -419.0 183.5 -477.0 254.0 -477.0 322.5 -477.0 364.5 -414.5 403.5 -356.0 403.5 -264.0 M483.5 -264.0 L483.5 -264.0 Q483.5 -392.0 425.0 -465.5 363.5 -542.5 254.0 -542.5 148.5 -542.5 86.5 -470.5 24.5 -398.0 24.5 -264.0 24.5 -150.5 73.5 -76.5 134.0 14.5 254.0 14.5 374.0 14.5 431.5 -62.5 483.5 -132.0 483.5 -264.0" fill-rule="evenodd" stroke="none"/>
    </g>
    <g id="font_Ex_Rounded_l0">
      <path d="M114.5 -27.0 L114.5 -747.5 Q114.5 -764.0 104.5 -773.5 94.0 -782.5 80.0 -782.5 64.5 -782.5 53.5 -773.0 43.0 -763.0 43.0 -747.5 L43.0 -27.0 Q43.0 -9.5 53.5 0.5 64.5 10.0 80.0 10.0 93.0 10.0 104.0 0.5 114.5 -9.5 114.5 -27.0" fill-rule="evenodd" stroke="none"/>
    </g>
    <g id="font_Ex_Rounded_a0">
      <path d="M397.5 -265.5 L397.5 -265.5 Q397.5 -179.0 362.5 -120.0 320.5 -49.0 240.0 -49.0 170.5 -49.0 130.5 -115.0 94.5 -174.5 94.5 -265.5 94.5 -356.0 132.0 -417.5 169.0 -479.5 240.0 -479.5 316.5 -479.5 357.0 -423.5 397.5 -367.0 397.5 -265.5 M467.0 -18.5 L467.0 -518.0 Q467.0 -533.5 461.0 -540.5 450.5 -553.0 432.5 -553.0 417.0 -553.0 407.0 -544.5 397.5 -535.5 397.5 -518.0 L397.5 -452.5 Q373.0 -496.5 329.0 -525.0 285.0 -553.0 240.0 -553.0 160.0 -553.0 94.5 -483.0 16.5 -401.0 16.5 -265.0 16.5 -131.5 83.0 -54.5 142.5 14.5 225.5 14.5 280.5 14.5 326.0 -6.0 371.0 -26.5 397.5 -57.5 L397.5 -18.5 Q397.5 0.0 407.5 9.5 418.0 18.5 432.5 18.5 445.5 18.5 456.5 9.0 467.0 -1.0 467.0 -18.5" fill-rule="evenodd" stroke="none"/>
    </g>
    <g id="font_Ex_Rounded_m0">
      <path d="M749.5 -27.0 L749.5 -383.0 Q749.5 -454.0 692.0 -500.5 635.0 -547.0 563.0 -547.0 516.0 -547.0 472.5 -525.0 429.0 -503.0 397.5 -461.0 346.0 -553.0 256.0 -553.0 174.0 -553.0 112.5 -477.0 L112.5 -518.0 Q112.5 -533.5 106.5 -540.5 96.0 -553.0 78.0 -553.0 62.5 -553.0 51.5 -544.5 41.0 -535.5 41.0 -518.0 L41.0 -27.0 Q41.0 -9.5 51.5 0.5 62.5 10.0 78.0 10.0 91.0 10.0 102.0 0.5 112.5 -9.5 112.5 -27.0 L112.5 -328.0 Q112.5 -394.5 155.5 -436.5 193.5 -473.5 243.5 -473.5 290.0 -473.5 324.0 -440.0 358.5 -407.0 358.5 -350.5 L358.5 -27.0 Q358.5 -9.5 369.0 0.5 380.0 10.0 395.5 10.0 408.5 10.0 419.5 0.5 430.0 -9.5 430.0 -27.0 L430.0 -328.0 Q430.0 -395.5 472.0 -436.5 510.0 -473.5 559.0 -473.5 603.0 -473.5 639.5 -440.0 676.0 -407.0 676.0 -350.5 L676.0 -27.0 Q676.0 -9.5 686.5 0.5 697.5 10.0 710.5 10.0 726.0 10.0 738.0 0.5 749.5 -9.5 749.5 -27.0" fill-rule="evenodd" stroke="none"/>
    </g>
    <g id="font_Ex_Rounded_i0">
      <path d="M122.5 -27.0 L122.5 -510.0 Q122.5 -527.5 112.0 -537.5 101.0 -547.0 88.0 -547.0 72.5 -547.0 61.5 -537.5 51.0 -527.5 51.0 -510.0 L51.0 -27.0 Q51.0 -9.5 61.5 0.5 72.5 10.0 88.0 10.0 101.0 10.0 112.0 0.5 122.5 -9.5 122.5 -27.0 M130.5 -663.5 L130.5 -663.5 Q130.5 -682.0 114.0 -699.5 98.0 -717.0 79.5 -717.0 61.0 -717.0 45.0 -700.5 28.5 -684.0 28.5 -665.5 28.5 -648.5 46.5 -632.5 64.0 -616.5 81.5 -616.5 99.0 -616.5 114.5 -631.5 130.5 -646.0 130.5 -663.5" fill-rule="evenodd" stroke="none"/>
    </g>
    <g id="font_Ex_Rounded_g0">
      <path d="M397.5 -264.0 L397.5 -264.0 Q397.5 -165.5 359.0 -107.5 320.5 -49.0 246.0 -49.0 184.5 -49.0 142.5 -100.0 94.5 -158.5 94.5 -264.0 94.5 -359.0 133.0 -418.0 171.5 -477.0 246.0 -477.0 324.0 -477.0 363.5 -411.5 397.5 -356.0 397.5 -264.0 M467.0 -10.5 L467.0 -510.0 Q467.0 -527.5 456.5 -537.5 445.5 -547.0 432.5 -547.0 417.0 -547.0 407.0 -537.0 397.5 -527.0 397.5 -509.5 L397.5 -460.5 Q376.0 -495.5 339.0 -517.0 296.0 -542.5 246.0 -542.5 128.0 -542.5 68.5 -459.5 16.5 -387.0 16.5 -264.0 16.5 -135.0 75.5 -60.0 134.5 14.5 246.0 14.5 294.0 14.5 336.5 -8.0 379.0 -30.5 397.5 -65.5 L397.5 -45.0 Q397.5 62.5 340.0 112.5 300.0 147.5 246.0 147.5 197.0 147.5 158.0 132.0 129.0 121.0 88.0 92.0 84.0 91.0 75.0 88.5 65.5 86.0 61.5 86.0 46.0 86.0 37.5 95.5 29.0 105.5 29.0 121.0 29.0 130.0 33.5 138.0 38.0 146.5 47.0 155.5 97.5 192.5 138.0 205.5 178.5 219.0 246.0 219.0 343.0 219.0 405.0 157.0 467.0 95.0 467.0 -10.5" fill-rule="evenodd" stroke="none"/>
    </g>
    <g id="font_Ex_Rounded_u0">
      <path d="M436.0 -168.0 L436.0 -510.0 Q436.0 -527.5 425.5 -537.5 414.5 -547.0 399.0 -547.0 386.0 -547.0 375.0 -537.5 364.5 -527.5 364.5 -510.0 L364.5 -192.5 Q364.5 -131.0 329.5 -94.5 295.0 -57.5 231.0 -57.5 170.5 -57.5 136.5 -95.0 102.0 -132.5 102.0 -192.5 L102.0 -510.0 Q102.0 -528.5 92.0 -538.0 81.5 -547.0 67.5 -547.0 52.0 -547.0 42.0 -537.5 32.5 -527.5 32.5 -510.0 L32.5 -168.0 Q32.5 -89.0 84.0 -41.5 136.0 6.0 231.0 6.0 328.5 6.0 382.0 -41.5 436.0 -89.0 436.0 -168.0" fill-rule="evenodd" stroke="none"/>
    </g>
    <g id="font_Ex_Rounded_t0">
      <path d="M249.5 -499.5 L249.5 -499.5 Q249.5 -514.0 241.0 -524.5 232.0 -534.5 214.5 -534.5 L167.5 -534.5 167.5 -667.5 Q167.5 -685.0 157.0 -695.0 146.0 -704.5 133.0 -704.5 117.5 -704.5 106.5 -695.0 96.0 -685.0 96.0 -667.5 L96.0 -534.5 49.0 -534.5 Q32.5 -534.5 23.0 -524.5 14.0 -514.0 14.0 -499.5 14.0 -487.5 23.0 -478.0 32.5 -469.0 49.0 -469.0 L96.0 -469.0 96.0 -27.0 Q96.0 -9.5 106.5 0.5 117.5 10.0 133.0 10.0 146.0 10.0 157.0 0.5 167.5 -9.5 167.5 -27.0 L167.5 -469.0 214.5 -469.0 Q236.0 -469.0 245.5 -484.5 249.5 -491.5 249.5 -499.5" fill-rule="evenodd" stroke="none"/>
    </g>
    <g id="font_Ex_Rounded__2">
      <path d="M129.0 -37.0 L129.0 -37.0 Q129.0 -61.0 116.0 -75.5 103.5 -90.5 78.0 -90.5 53.0 -90.5 40.0 -76.0 26.5 -62.0 26.5 -39.0 26.5 -17.5 41.5 -4.0 56.0 10.0 80.0 10.0 129.0 10.0 129.0 -37.0 M110.5 -240.0 L110.5 -692.0 Q110.5 -711.5 100.0 -722.5 89.0 -733.0 76.0 -733.0 60.5 -733.0 49.5 -722.5 39.0 -711.5 39.0 -692.0 L39.0 -240.0 Q39.0 -222.5 49.5 -212.5 60.5 -203.0 76.0 -203.0 89.0 -203.0 100.0 -212.5 110.5 -222.5 110.5 -240.0" fill-rule="evenodd" stroke="none"/>
    </g>
    <g id="font_Ex_Rounded_T0">
      <path d="M441.5 -680.0 L441.5 -680.0 Q441.5 -695.5 432.0 -705.5 422.0 -715.0 404.5 -715.0 L49.0 -715.0 Q31.5 -715.0 22.5 -705.5 14.0 -695.5 14.0 -680.0 14.0 -666.0 23.0 -655.5 32.5 -645.5 49.0 -645.5 L192.0 -645.5 192.0 -34.5 Q192.0 -11.0 202.0 1.5 212.5 14.5 227.0 14.5 240.0 14.5 251.0 1.0 261.5 -12.0 261.5 -34.5 L261.5 -645.5 404.5 -645.5 Q423.0 -645.5 432.5 -655.5 441.5 -666.0 441.5 -680.0" fill-rule="evenodd" stroke="none"/>
    </g>
    <g id="font_Ex_Rounded_e0">
      <path d="M397.0 -294.5 L94.0 -294.5 Q94.0 -380.5 140.0 -431.0 182.0 -477.0 245.5 -477.0 312.0 -477.0 354.5 -425.0 397.0 -373.5 397.0 -294.5 M481.0 -301.0 L481.0 -301.0 Q481.0 -385.0 425.5 -455.5 358.0 -542.5 245.5 -542.5 136.0 -542.5 70.5 -442.0 14.0 -356.0 14.0 -249.5 14.0 -151.5 69.5 -76.5 137.0 14.5 262.0 14.5 325.5 14.5 373.5 -8.0 421.5 -30.5 458.5 -73.5 464.5 -80.0 464.5 -90.0 464.5 -103.5 454.0 -116.0 443.0 -129.0 430.0 -129.0 422.5 -129.0 413.0 -125.0 403.0 -121.0 397.0 -112.5 366.5 -84.0 344.0 -71.5 304.0 -49.0 262.0 -49.0 196.5 -49.0 145.0 -103.0 94.0 -157.5 94.0 -223.0 L444.0 -223.0 Q459.5 -223.0 470.5 -245.0 481.0 -267.0 481.0 -301.0" fill-rule="evenodd" stroke="none"/>
    </g>
    <g id="font_Ex_Rounded_n0">
      <path d="M440.0 -27.0 L440.0 -368.0 Q440.0 -452.5 382.5 -504.5 329.5 -553.0 255.5 -553.0 210.5 -553.0 171.0 -531.5 131.5 -510.0 106.0 -469.0 L106.0 -518.0 Q106.0 -539.5 89.5 -549.0 82.5 -553.0 71.5 -553.0 56.0 -553.0 46.0 -544.5 36.5 -535.5 36.5 -518.0 L36.5 -27.0 Q36.5 -8.5 46.5 1.0 57.0 10.0 71.5 10.0 86.5 10.0 96.5 0.0 106.0 -9.5 106.0 -27.0 L106.0 -321.0 Q106.0 -394.0 151.0 -437.0 190.0 -475.0 245.5 -475.0 L251.5 -475.0 Q301.0 -475.0 334.5 -444.0 368.5 -413.5 368.5 -360.0 L368.5 -27.0 Q368.5 -9.5 379.0 0.0 390.0 10.0 403.0 10.0 418.5 10.0 429.5 0.0 440.0 -9.5 440.0 -27.0" fill-rule="evenodd" stroke="none"/>
    </g>
    <g id="font_Ex_Rounded_v0">
      <path d="M407.5 -493.5 L407.5 -508.0 Q407.5 -525.5 400.0 -535.0 392.0 -545.0 381.0 -545.0 367.5 -545.0 355.0 -533.0 342.0 -521.5 338.0 -499.5 L209.0 -120.5 84.0 -499.5 Q81.0 -517.0 70.5 -528.5 56.5 -545.0 37.0 -545.0 6.0 -545.0 6.0 -514.0 6.0 -513.0 8.0 -507.0 10.0 -501.0 12.5 -493.5 L170.0 -18.5 Q176.0 12.5 209.0 12.5 224.5 12.5 235.5 4.5 247.0 -4.0 250.0 -18.5 L407.5 -493.5" fill-rule="evenodd" stroke="none"/>
    </g>
    <g id="font_Ex_Rounded_p0">
      <path d="M421.5 -272.0 L421.5 -272.0 Q421.5 -173.0 381.5 -111.0 341.5 -49.0 272.0 -49.0 194.0 -49.0 153.5 -125.0 120.5 -185.0 120.5 -272.0 120.5 -361.5 163.5 -419.0 206.5 -477.0 272.0 -477.0 333.5 -477.0 377.5 -420.0 421.5 -363.5 421.5 -272.0 M501.5 -272.0 L501.5 -272.0 Q501.5 -386.0 443.0 -460.5 379.5 -542.5 272.0 -542.5 225.0 -542.5 186.0 -520.0 152.5 -500.5 120.5 -460.5 L120.5 -509.5 Q120.5 -527.0 110.0 -537.0 99.0 -547.0 86.0 -547.0 70.5 -547.0 59.5 -537.5 49.0 -527.5 49.0 -510.0 L49.0 188.0 Q49.0 205.5 59.5 214.5 70.5 223.0 86.0 223.0 99.0 223.0 110.0 213.5 120.5 203.5 120.5 188.0 L120.5 -65.5 Q153.5 -25.5 188.5 -5.5 224.0 14.5 272.0 14.5 384.5 14.5 443.0 -59.5 501.5 -134.0 501.5 -272.0" fill-rule="evenodd" stroke="none"/>
    </g>
    <g id="font_Ex_Rounded_r0">
      <path d="M268.5 -500.0 L268.5 -500.0 Q268.5 -522.5 254.5 -536.5 240.5 -551.0 213.0 -551.0 181.0 -551.0 143.5 -513.0 117.5 -487.5 92.0 -446.5 L92.0 -510.0 Q92.0 -528.5 82.0 -537.5 71.5 -547.0 57.5 -547.0 42.0 -547.0 32.0 -537.0 22.5 -527.5 22.5 -510.0 L22.5 -27.0 Q22.5 -8.5 32.5 1.0 43.0 10.0 57.5 10.0 72.5 10.0 82.5 0.5 92.0 -9.5 92.0 -27.0 L92.0 -289.0 Q92.0 -346.5 116.5 -387.0 132.0 -413.0 163.5 -438.5 169.0 -442.5 228.5 -460.0 268.5 -472.0 268.5 -500.0" fill-rule="evenodd" stroke="none"/>
    </g>
    <g id="font_Ex_Rounded_q0">
      <path d="M405.5 -264.0 L405.5 -264.0 Q405.5 -169.0 367.5 -109.0 329.5 -49.0 256.0 -49.0 190.5 -49.0 147.5 -113.0 104.5 -177.0 104.5 -264.0 104.5 -356.0 145.5 -416.5 186.5 -477.0 256.0 -477.0 328.5 -477.0 369.5 -411.5 405.5 -354.0 405.5 -264.0 M477.0 188.0 L477.0 -510.0 Q477.0 -527.5 466.5 -537.5 455.5 -547.0 442.5 -547.0 427.0 -547.0 416.0 -537.0 405.5 -527.0 405.5 -509.5 L405.5 -460.5 Q379.0 -506.5 341.0 -524.5 303.0 -542.5 256.0 -542.5 154.5 -542.5 93.0 -474.0 26.5 -400.0 26.5 -264.0 26.5 -153.5 85.0 -73.5 149.5 14.5 256.0 14.5 302.0 14.5 342.0 -7.5 382.0 -29.5 405.5 -65.5 L405.5 188.0 Q405.5 205.5 416.0 214.5 427.0 223.0 442.5 223.0 455.5 223.0 466.5 213.5 477.0 203.5 477.0 188.0" fill-rule="evenodd" stroke="none"/>
    </g>
    <g id="font_Ex_Rounded_j0">
      <path d="M127.0 188.0 L127.0 -510.0 Q127.0 -527.5 116.5 -537.5 105.5 -547.0 90.0 -547.0 77.0 -547.0 66.0 -537.5 55.5 -527.5 55.5 -510.0 L55.5 188.0 Q55.5 204.5 65.5 214.0 76.0 223.0 90.0 223.0 105.5 223.0 116.5 213.5 127.0 203.5 127.0 188.0 M141.5 -661.5 L141.5 -661.5 Q141.5 -680.0 125.0 -697.5 108.5 -715.0 90.5 -715.0 72.0 -715.0 55.5 -698.5 39.0 -682.0 39.0 -663.5 39.0 -646.5 57.0 -630.5 75.0 -614.5 92.5 -614.5 109.5 -614.5 125.5 -629.5 141.5 -644.0 141.5 -661.5" fill-rule="evenodd" stroke="none"/>
    </g>
    <g id="font_Ex_Rounded_s0">
      <path d="M418.0 -151.5 L418.0 -151.5 Q418.0 -205.0 371.0 -246.0 341.0 -272.5 276.5 -303.0 261.5 -311.5 188.0 -343.5 115.0 -376.0 115.0 -405.5 115.0 -442.5 144.0 -460.0 173.5 -477.5 219.5 -477.5 248.0 -477.5 285.0 -462.5 321.5 -447.5 340.0 -430.0 350.5 -420.0 362.5 -420.0 377.0 -420.0 388.0 -430.0 399.5 -440.5 399.5 -452.5 399.5 -462.0 394.0 -473.5 388.0 -485.5 379.0 -493.5 358.5 -515.0 313.5 -531.5 262.0 -551.0 211.0 -551.0 131.0 -551.0 83.0 -504.0 39.0 -461.0 39.0 -397.5 39.0 -341.0 89.0 -303.0 109.5 -286.5 180.5 -256.0 241.0 -231.0 260.5 -221.0 334.0 -183.0 334.0 -141.0 334.0 -100.0 298.5 -78.5 263.5 -57.0 211.0 -57.0 174.0 -57.0 139.5 -77.5 115.0 -92.0 86.0 -120.5 76.0 -131.0 57.5 -131.0 43.0 -131.0 31.0 -117.5 18.5 -104.5 18.5 -90.0 18.5 -74.5 39.0 -57.0 83.0 -18.5 121.0 -2.0 159.0 14.5 211.0 14.5 315.5 14.5 372.0 -40.0 418.0 -85.0 418.0 -151.5" fill-rule="evenodd" stroke="none"/>
    </g>
    <g id="font_Ex_Rounded_b0">
      <path d="M411.5 -256.0 L411.5 -256.0 Q411.5 -174.0 382.0 -114.5 345.0 -41.0 270.0 -41.0 203.5 -41.0 157.0 -105.5 110.5 -170.0 110.5 -256.0 110.5 -346.0 151.5 -413.0 196.5 -485.5 270.0 -485.5 338.0 -485.5 376.5 -415.0 411.5 -352.5 411.5 -256.0 M493.5 -256.0 L493.5 -256.0 Q493.5 -399.5 423.0 -480.5 361.5 -551.0 270.5 -551.0 216.0 -551.0 172.0 -519.0 138.0 -494.5 110.5 -452.5 L110.5 -747.5 Q110.5 -764.0 100.5 -773.5 90.0 -782.5 76.0 -782.5 60.5 -782.5 49.5 -773.0 39.0 -763.0 39.0 -747.5 L39.0 -18.5 Q39.0 -1.0 49.5 9.0 60.5 18.5 76.0 18.5 89.0 18.5 100.0 9.0 110.5 -1.0 110.5 -18.5 L110.5 -65.5 Q141.0 -21.5 181.0 0.5 221.0 22.5 270.5 22.5 349.0 22.5 409.5 -30.5 493.5 -104.5 493.5 -256.0" fill-rule="evenodd" stroke="none"/>
    </g>
    <g id="font_Ex_Rounded_.0">
      <path d="M123.0 -36.5 L123.0 -36.5 Q123.0 -55.0 106.5 -72.5 90.0 -90.0 72.0 -90.0 53.5 -90.0 37.0 -73.5 20.5 -57.0 20.5 -38.5 20.5 -21.5 38.5 -5.5 56.5 10.5 74.0 10.5 91.0 10.5 107.0 -4.5 123.0 -19.0 123.0 -36.5" fill-rule="evenodd" stroke="none"/>
    </g>
    <g id="font_Ex_Rounded_I0">
      <path d="M126.5 -27.0 L126.5 -692.0 Q126.5 -709.5 116.0 -718.5 105.0 -727.0 89.5 -727.0 76.5 -727.0 65.5 -717.5 55.0 -707.5 55.0 -692.0 L55.0 -27.0 Q55.0 -9.5 65.5 0.5 76.5 10.0 89.5 10.0 105.0 10.0 116.0 0.5 126.5 -9.5 126.5 -27.0" fill-rule="evenodd" stroke="none"/>
    </g>
    <g id="font_Ex_Rounded_d0">
      <path d="M405.5 -272.5 L405.5 -272.5 Q405.5 -169.0 370.5 -115.5 333.0 -57.0 248.0 -57.0 196.5 -57.0 153.5 -113.5 104.5 -177.0 104.5 -272.5 104.5 -346.0 135.0 -404.5 174.0 -477.5 248.0 -477.5 327.5 -477.5 368.5 -419.0 405.5 -366.5 405.5 -272.5 M477.0 -18.5 L477.0 -747.5 Q477.0 -764.0 467.0 -773.5 456.5 -782.5 442.5 -782.5 427.0 -782.5 416.0 -773.0 405.5 -763.0 405.5 -747.5 L405.5 -461.0 Q369.5 -506.0 342.0 -524.5 302.0 -551.0 248.0 -551.0 161.5 -551.0 97.0 -479.5 26.5 -400.5 26.5 -272.5 26.5 -116.5 104.5 -42.0 162.5 14.5 248.0 14.5 300.0 14.5 341.0 -7.5 382.0 -29.5 405.5 -65.5 L405.5 -18.5 Q405.5 -5.5 415.0 1.5 425.0 8.0 438.0 8.0 451.5 8.0 464.0 0.5 477.0 -7.5 477.0 -18.5" fill-rule="evenodd" stroke="none"/>
    </g>
    <g id="font_Ex_Rounded_f0">
      <path d="M274.0 -743.5 L274.0 -743.5 Q274.0 -757.0 264.5 -769.0 254.5 -780.5 239.5 -780.5 L176.0 -780.5 Q136.0 -780.5 116.0 -755.5 96.0 -730.0 96.0 -692.5 L96.0 -542.5 49.0 -542.5 Q31.5 -542.5 22.5 -531.5 14.0 -520.0 14.0 -503.5 14.0 -490.5 23.5 -479.5 33.5 -469.0 49.0 -469.0 L96.0 -469.0 96.0 -27.0 Q96.0 -9.5 106.5 0.5 117.5 10.0 133.0 10.0 146.0 10.0 157.0 0.5 167.5 -9.5 167.5 -27.0 L167.5 -469.0 231.0 -469.0 Q247.5 -469.0 257.0 -479.0 266.0 -489.5 266.0 -503.5 266.0 -519.0 256.5 -531.0 246.5 -542.5 231.0 -542.5 L167.5 -542.5 167.5 -659.5 Q167.5 -707.0 206.5 -707.0 L239.0 -707.0 Q256.5 -707.0 265.5 -717.5 274.0 -728.5 274.0 -743.5" fill-rule="evenodd" stroke="none"/>
    </g>
    <g id="font_Ex_Rounded_c0">
      <path d="M393.0 -475.0 L393.0 -475.0 Q393.0 -499.0 372.5 -510.0 318.5 -545.0 256.0 -545.0 161.0 -545.0 91.0 -471.0 16.5 -392.5 16.5 -272.5 16.5 -131.0 93.5 -51.0 159.0 16.5 248.0 16.5 278.5 16.5 316.5 6.5 354.5 -4.0 372.5 -19.0 391.0 -33.5 391.0 -51.0 391.0 -65.5 380.0 -76.5 368.5 -88.0 354.5 -88.0 343.0 -88.0 334.0 -82.0 297.0 -63.5 250.0 -63.5 181.5 -63.5 137.5 -128.0 98.5 -185.5 98.5 -258.0 98.5 -336.0 138.5 -397.5 183.5 -467.0 256.0 -467.0 296.0 -467.0 325.5 -446.5 331.0 -443.5 341.0 -437.5 347.0 -434.0 352.5 -434.0 369.5 -434.0 381.5 -447.0 393.0 -460.0 393.0 -475.0" fill-rule="evenodd" stroke="none"/>
    </g>
    <g id="font_Ex_Rounded_h0">
      <path d="M440.0 -27.0 L440.0 -358.5 Q440.0 -426.0 398.0 -478.0 345.5 -542.5 249.5 -542.5 203.5 -542.5 165.5 -521.0 133.5 -502.5 106.0 -469.0 L106.0 -739.0 Q106.0 -756.5 96.5 -765.5 86.5 -774.0 71.5 -774.0 57.0 -774.0 46.5 -765.0 36.5 -755.5 36.5 -739.0 L36.5 -27.0 Q36.5 -8.5 46.5 1.0 57.0 10.0 71.5 10.0 86.5 10.0 96.5 0.5 106.0 -9.5 106.0 -27.0 L106.0 -327.5 Q106.0 -392.0 146.5 -434.5 187.0 -477.0 243.5 -477.0 299.0 -477.0 335.5 -428.0 368.5 -384.0 368.5 -327.5 L368.5 -27.0 Q368.5 -9.5 379.0 0.5 390.0 10.0 403.0 10.0 418.5 10.0 429.5 0.5 440.0 -9.5 440.0 -27.0" fill-rule="evenodd" stroke="none"/>
    </g>
    <g id="font_Ex_Rounded__3">
      <path d="M432.0 -719.0 L432.0 -719.0 Q432.0 -732.5 420.5 -745.0 408.5 -758.0 395.0 -758.0 389.0 -758.0 377.0 -754.0 L235.5 -657.5 Q217.0 -646.5 217.0 -627.0 217.0 -611.5 226.0 -601.0 234.5 -590.0 248.0 -590.0 255.0 -590.0 264.5 -594.5 273.5 -599.0 279.0 -602.0 L416.0 -690.5 Q425.0 -694.5 428.5 -702.0 432.0 -710.0 432.0 -719.0 M397.0 -294.5 L94.0 -294.5 Q94.0 -380.5 140.0 -431.0 182.0 -477.0 245.5 -477.0 312.0 -477.0 354.5 -425.0 397.0 -373.5 397.0 -294.5 M481.0 -301.0 L481.0 -301.0 Q481.0 -385.0 425.5 -455.5 358.0 -542.5 245.5 -542.5 136.0 -542.5 70.5 -442.0 14.0 -356.0 14.0 -249.5 14.0 -151.5 69.5 -76.5 137.0 14.5 262.0 14.5 325.5 14.5 373.5 -8.0 421.5 -30.5 458.5 -73.5 464.5 -80.0 464.5 -90.0 464.5 -103.5 454.0 -116.0 443.0 -129.0 430.0 -129.0 422.5 -129.0 413.0 -125.0 403.0 -121.0 397.0 -112.5 366.5 -84.0 344.0 -71.5 304.0 -49.0 262.0 -49.0 196.5 -49.0 145.0 -103.0 94.0 -157.5 94.0 -223.0 L444.0 -223.0 Q459.5 -223.0 470.5 -245.0 481.0 -267.0 481.0 -301.0" fill-rule="evenodd" stroke="none"/>
    </g>
    <g id="font_Ex_Rounded__4">
      <path d="M456.5 -731.0 L456.5 -731.0 Q456.5 -744.5 445.0 -757.0 433.0 -770.0 419.5 -770.0 413.5 -770.0 401.5 -766.0 L260.0 -669.5 Q241.5 -658.5 241.5 -639.0 241.5 -623.5 250.5 -613.0 259.0 -602.0 272.5 -602.0 279.5 -602.0 289.0 -606.5 298.0 -611.0 303.5 -614.0 L440.5 -702.5 Q449.5 -706.5 453.0 -714.0 456.5 -722.0 456.5 -731.0 M403.5 -264.0 L403.5 -264.0 Q403.5 -151.5 367.0 -100.0 331.0 -49.0 254.0 -49.0 177.0 -49.0 135.5 -127.0 102.5 -187.0 102.5 -264.0 102.5 -361.5 143.0 -419.0 183.5 -477.0 254.0 -477.0 322.5 -477.0 364.5 -414.5 403.5 -356.0 403.5 -264.0 M483.5 -264.0 L483.5 -264.0 Q483.5 -392.0 425.0 -465.5 363.5 -542.5 254.0 -542.5 148.5 -542.5 86.5 -470.5 24.5 -398.0 24.5 -264.0 24.5 -150.5 73.5 -76.5 134.0 14.5 254.0 14.5 374.0 14.5 431.5 -62.5 483.5 -132.0 483.5 -264.0" fill-rule="evenodd" stroke="none"/>
    </g>
    <g id="font_Ex_Rounded_R0">
      <path d="M403.5 -526.5 L403.5 -526.5 Q403.5 -453.5 371.0 -422.5 339.0 -391.0 262.0 -391.0 L126.5 -391.0 126.5 -645.5 262.0 -645.5 Q324.5 -645.5 364.0 -614.0 403.5 -583.0 403.5 -526.5 M481.0 -25.0 L481.0 -25.0 Q481.0 -43.5 467.5 -58.0 L221.0 -319.5 286.5 -319.5 Q377.5 -319.5 430.0 -386.0 475.0 -443.5 475.0 -526.5 475.0 -639.0 391.0 -685.5 337.5 -715.0 253.5 -715.0 L110.5 -715.0 Q81.5 -715.0 71.5 -707.5 61.0 -699.5 55.0 -676.0 L55.0 -35.0 Q55.0 -14.5 65.0 -3.5 75.5 8.0 89.5 8.0 105.0 8.0 116.0 -4.0 126.5 -15.5 126.5 -35.0 L126.5 -319.5 411.5 -10.0 Q426.5 8.0 448.0 8.0 461.5 8.0 471.5 -2.0 481.0 -11.5 481.0 -25.0" fill-rule="evenodd" stroke="none"/>
    </g>
    <g id="font_Ex_Rounded_y0">
      <path d="M420.0 -506.0 L420.0 -506.0 Q420.0 -522.5 408.5 -533.5 397.0 -545.0 385.0 -545.0 371.5 -545.0 360.0 -536.0 348.5 -526.5 345.5 -510.0 L209.0 -123.0 84.0 -510.0 Q81.0 -527.5 68.5 -536.5 55.5 -545.0 41.0 -545.0 27.5 -545.0 17.0 -534.0 6.0 -522.5 6.0 -506.5 9.0 -496.0 12.5 -485.5 L178.5 -26.5 106.5 164.0 102.5 184.5 Q102.5 199.5 113.0 210.5 124.0 221.0 137.0 221.0 153.5 221.0 167.0 208.0 175.0 199.5 178.0 188.5 L416.0 -485.5 420.0 -506.0" fill-rule="evenodd" stroke="none"/>
    </g>
    <g id="font_Ex_Rounded__5">
      <path d="M381.0 -688.5 L381.0 -688.5 Q381.0 -715.0 354.0 -715.0 343.0 -715.0 329.5 -704.5 306.0 -686.0 291.0 -686.0 254.0 -696.5 221.0 -705.5 188.5 -715.0 164.0 -715.0 129.0 -715.0 102.5 -695.0 75.5 -675.0 75.5 -639.0 75.5 -625.0 85.5 -616.5 95.0 -608.5 104.5 -608.5 123.0 -608.5 152.5 -631.0 166.0 -641.5 180.0 -641.5 193.5 -641.5 247.5 -623.0 271.5 -614.5 286.5 -614.5 323.5 -614.5 350.0 -632.0 381.0 -652.5 381.0 -688.5 M440.0 -27.0 L440.0 -368.0 Q440.0 -452.5 382.5 -504.5 329.5 -553.0 255.5 -553.0 210.5 -553.0 171.0 -531.5 131.5 -510.0 106.0 -469.0 L106.0 -518.0 Q106.0 -539.5 89.5 -549.0 82.5 -553.0 71.5 -553.0 56.0 -553.0 46.0 -544.5 36.5 -535.5 36.5 -518.0 L36.5 -27.0 Q36.5 -8.5 46.5 1.0 57.0 10.0 71.5 10.0 86.5 10.0 96.5 0.0 106.0 -9.5 106.0 -27.0 L106.0 -321.0 Q106.0 -394.0 151.0 -437.0 190.0 -475.0 245.5 -475.0 L251.5 -475.0 Q301.0 -475.0 334.5 -444.0 368.5 -413.5 368.5 -360.0 L368.5 -27.0 Q368.5 -9.5 379.0 0.0 390.0 10.0 403.0 10.0 418.5 10.0 429.5 0.0 440.0 -9.5 440.0 -27.0" fill-rule="evenodd" stroke="none"/>
    </g>
    <g id="font_Ex_Rounded_z0">
      <path d="M422.0 -39.0 L422.0 -39.0 Q422.0 -52.0 412.0 -63.0 402.5 -73.5 387.0 -73.5 L116.5 -73.5 387.0 -461.0 Q398.5 -483.5 402.0 -495.0 405.5 -507.0 405.5 -512.0 405.5 -542.5 362.5 -542.5 L69.5 -542.5 Q52.0 -542.5 43.5 -531.0 35.0 -519.0 35.0 -503.5 35.0 -489.5 43.5 -479.0 52.0 -469.0 69.5 -469.0 L299.0 -469.0 38.5 -82.0 Q30.5 -69.0 25.5 -57.5 20.5 -46.0 20.5 -39.0 20.5 -2.0 78.0 -2.0 L387.0 -2.0 Q404.5 -2.0 413.0 -12.5 422.0 -23.5 422.0 -39.0" fill-rule="evenodd" stroke="none"/>
    </g>
  </defs>
</svg>
